{"glyphs":{"0":{"ha":884,"x_min":92,"x_max":791,"o":"m 441 47 q 597 161 545 47 q 648 505 648 275 q 597 850 648 736 q 441 964 545 964 q 286 850 338 964 q 235 505 235 736 q 286 161 235 275 q 441 47 338 47 m 441 -20 q 184 119 277 -20 q 92 505 92 257 q 184 892 92 754 q 441 1031 277 1031 q 699 892 607 1031 q 791 505 791 754 q 699 119 791 257 q 441 -20 607 -20 z "},"1":{"ha":884,"x_min":170,"x_max":686,"o":"m 197 0 l 197 72 l 374 72 l 374 914 l 170 782 l 170 871 l 416 1031 l 510 1031 l 510 72 l 686 72 l 686 0 l 197 0 z "},"2":{"ha":884,"x_min":94,"x_max":747,"o":"m 178 771 l 102 771 l 102 951 q 248 1010 174 990 q 392 1031 321 1031 q 642 954 550 1031 q 733 746 733 878 q 526 391 733 597 q 501 367 509 375 l 245 111 l 668 111 l 668 236 l 747 236 l 747 0 l 94 0 l 94 74 l 401 380 q 547 567 503 482 q 590 746 590 652 q 537 906 590 848 q 390 964 484 964 q 240 916 293 964 q 178 771 187 867 z "},"3":{"ha":884,"x_min":106,"x_max":781,"o":"m 135 970 q 287 1015 214 1000 q 424 1031 360 1031 q 656 967 572 1031 q 739 789 739 903 q 682 636 739 697 q 518 553 624 574 q 712 462 643 535 q 781 273 781 389 q 685 56 781 132 q 411 -20 590 -20 q 256 -3 332 -20 q 106 49 180 14 l 106 245 l 182 245 q 248 98 189 148 q 414 47 307 47 q 577 107 517 47 q 637 272 637 168 q 576 453 637 391 q 395 514 514 514 l 330 514 l 330 583 l 364 583 q 542 632 483 583 q 602 781 602 682 q 553 917 602 869 q 412 964 504 964 q 270 920 321 964 q 211 791 220 877 l 135 791 l 135 970 z "},"4":{"ha":884,"x_min":43,"x_max":814,"o":"m 485 343 l 485 882 l 139 343 l 485 343 m 783 0 l 322 0 l 322 72 l 485 72 l 485 271 l 43 271 l 43 345 l 486 1031 l 621 1031 l 621 343 l 814 343 l 814 271 l 621 271 l 621 72 l 783 72 l 783 0 z "},"5":{"ha":884,"x_min":118,"x_max":777,"o":"m 699 1013 l 699 901 l 235 901 l 235 611 q 317 648 270 635 q 422 660 364 660 q 682 569 587 660 q 777 321 777 478 q 681 70 777 160 q 411 -20 585 -20 q 268 -3 341 -20 q 118 49 195 14 l 118 245 l 195 245 q 256 98 201 149 q 411 47 311 47 q 576 118 518 47 q 633 321 633 189 q 576 523 633 452 q 411 593 519 593 q 303 571 350 593 q 221 504 257 549 l 163 504 l 163 1013 l 699 1013 z "},"6":{"ha":884,"x_min":93,"x_max":796,"o":"m 454 47 q 602 118 550 47 q 653 319 653 188 q 602 521 653 451 q 454 591 550 591 q 307 524 357 591 q 256 328 256 456 q 307 120 256 193 q 454 47 359 47 m 233 557 q 338 633 279 608 q 469 659 396 659 q 708 568 621 659 q 796 319 796 477 q 702 73 796 165 q 449 -20 607 -20 q 185 108 277 -20 q 93 473 93 236 q 202 885 93 739 q 510 1031 311 1031 q 623 1021 564 1031 q 743 990 682 1010 l 743 823 l 667 823 q 614 928 659 892 q 496 964 570 964 q 300 864 364 964 q 233 557 235 764 z "},"7":{"ha":884,"x_min":117,"x_max":783,"o":"m 783 943 l 387 0 l 286 0 l 664 901 l 196 901 l 196 777 l 117 777 l 117 1013 l 783 1013 l 783 943 z "},"8":{"ha":884,"x_min":93,"x_max":790,"o":"m 647 277 q 593 445 647 385 q 441 505 539 505 q 290 445 344 505 q 236 277 236 385 q 290 107 236 168 q 441 47 344 47 q 593 107 539 47 q 647 277 647 168 m 619 768 q 572 912 619 861 q 441 964 526 964 q 311 912 358 964 q 264 768 264 861 q 311 624 264 675 q 441 572 358 572 q 572 624 526 572 q 619 768 619 675 m 546 539 q 726 454 661 524 q 790 277 790 385 q 700 57 790 134 q 441 -20 610 -20 q 183 57 274 -20 q 93 277 93 134 q 157 454 93 385 q 338 539 222 524 q 181 617 235 557 q 126 768 126 676 q 210 961 126 890 q 441 1031 294 1031 q 673 961 589 1031 q 757 768 757 890 q 702 617 757 676 q 546 539 648 557 z "},"9":{"ha":884,"x_min":87,"x_max":790,"o":"m 650 454 q 545 378 604 403 q 412 353 486 353 q 175 444 262 353 q 87 692 87 534 q 182 938 87 846 q 435 1031 277 1031 q 698 903 606 1031 q 790 538 790 775 q 681 126 790 272 q 374 -20 572 -20 q 261 -9 320 -20 q 140 21 202 1 l 140 189 l 216 189 q 269 84 225 121 q 387 47 313 47 q 583 147 519 47 q 650 454 648 246 m 429 964 q 282 893 333 964 q 231 692 231 823 q 282 490 231 560 q 429 419 333 419 q 577 487 526 419 q 628 684 628 555 q 576 891 628 819 q 429 964 525 964 z "},"\u0000":{"ha":833,"x_min":69,"x_max":764,"o":"m 69 -245 l 69 979 l 764 979 l 764 -245 l 69 -245 m 147 -168 l 686 -168 l 686 901 l 147 901 l 147 -168 z "}," ":{"ha":441,"x_min":0,"x_max":0,"o":""},"!":{"ha":558,"x_min":189,"x_max":370,"o":"m 189 71 q 215 135 189 109 q 279 161 241 161 q 343 135 317 161 q 370 71 370 109 q 343 7 370 33 q 279 -20 317 -20 q 215 6 241 -20 q 189 71 189 33 m 192 1013 l 367 1013 l 321 456 l 321 285 l 237 285 l 237 456 l 192 1013 z "},"\"":{"ha":639,"x_min":136,"x_max":503,"o":"m 244 1013 l 244 636 l 136 636 l 136 1013 l 244 1013 m 503 1013 l 503 636 l 395 636 l 395 1013 l 503 1013 z "},"#":{"ha":1164,"x_min":107,"x_max":1057,"o":"m 707 611 l 515 611 l 458 385 l 652 385 l 707 611 m 611 997 l 542 715 l 733 715 l 803 997 l 920 997 l 848 715 l 1057 715 l 1057 611 l 822 611 l 766 385 l 979 385 l 979 281 l 741 281 l 671 0 l 554 0 l 625 281 l 433 281 l 363 0 l 248 0 l 317 281 l 107 281 l 107 385 l 343 385 l 399 611 l 184 611 l 184 715 l 425 715 l 496 997 l 611 997 z "},"$":{"ha":884,"x_min":118,"x_max":768,"o":"m 468 46 q 585 90 545 53 q 625 192 625 127 q 585 291 625 250 q 468 353 545 332 l 468 46 m 400 805 q 292 765 330 800 q 253 669 253 729 q 289 579 253 615 q 400 521 324 543 l 400 805 m 119 49 l 119 236 l 193 236 q 247 96 195 143 q 400 46 298 48 l 400 375 q 181 475 244 418 q 118 625 118 532 q 193 800 118 734 q 400 873 267 865 l 400 1055 l 468 1055 l 468 873 q 600 851 536 868 q 724 807 663 835 l 724 629 l 650 629 q 595 753 642 708 q 468 805 548 799 l 468 498 q 702 394 635 453 q 768 237 768 336 q 690 57 768 125 q 468 -21 611 -11 l 468 -204 l 400 -204 l 400 -21 q 265 -2 335 -20 q 119 49 195 15 z "},"%":{"ha":1320,"x_min":77,"x_max":1243,"o":"m 311 968 q 218 911 252 968 q 184 754 184 855 q 219 597 184 654 q 311 541 253 541 q 402 597 369 541 q 436 754 436 654 q 402 911 436 854 q 311 968 369 968 m 1010 471 q 917 414 951 471 q 884 256 884 357 q 918 99 884 156 q 1010 43 951 43 q 1101 99 1068 43 q 1135 256 1135 156 q 1101 413 1135 356 q 1010 471 1067 471 m 1010 532 q 1180 457 1117 532 q 1243 256 1243 382 q 1180 55 1243 129 q 1010 -20 1116 -20 q 838 55 901 -20 q 775 256 775 129 q 839 457 775 383 q 1010 532 902 532 m 925 1031 l 1028 1031 l 395 -20 l 292 -20 l 925 1031 m 310 1031 q 481 957 417 1031 q 545 755 545 882 q 481 553 545 627 q 310 479 418 479 q 139 554 202 479 q 77 755 77 628 q 140 956 77 882 q 310 1031 203 1031 z "},"&":{"ha":1236,"x_min":100,"x_max":1171,"o":"m 750 157 l 355 572 q 267 458 296 519 q 237 328 237 397 q 315 139 237 215 q 510 62 393 62 q 641 86 579 62 q 750 157 702 111 m 1171 0 l 899 0 l 806 98 q 654 9 734 39 q 479 -20 573 -20 q 202 70 304 -20 q 100 313 100 159 q 152 481 100 403 q 309 628 203 559 q 258 710 274 669 q 241 796 241 751 q 319 967 241 904 q 530 1031 397 1031 q 636 1019 576 1031 q 775 985 697 1008 l 775 810 l 699 810 q 646 920 689 882 q 528 958 602 958 q 414 920 458 958 q 371 821 371 882 q 394 738 371 779 q 490 621 417 697 l 840 252 q 914 369 887 306 q 947 503 941 431 l 825 503 l 825 575 l 1146 575 l 1146 503 l 1029 503 q 984 338 1018 414 q 895 196 951 261 l 1011 72 l 1171 72 l 1171 0 z "},"'":{"ha":382,"x_min":136,"x_max":244,"o":"m 244 1013 l 244 636 l 136 636 l 136 1013 l 244 1013 z "},"(":{"ha":542,"x_min":110,"x_max":443,"o":"m 443 -216 q 194 18 278 -142 q 110 419 110 178 q 194 821 110 661 q 443 1055 278 981 l 443 989 q 293 786 338 917 q 248 419 248 656 q 293 53 248 183 q 443 -150 338 -78 l 443 -216 z "},")":{"ha":542,"x_min":98,"x_max":432,"o":"m 98 -216 l 98 -150 q 249 53 203 -78 q 294 419 294 183 q 249 786 294 656 q 98 989 203 917 l 98 1055 q 348 821 264 981 q 432 419 432 661 q 348 18 432 178 q 98 -216 264 -142 z "},"*":{"ha":694,"x_min":22,"x_max":672,"o":"m 672 839 l 407 715 l 672 590 l 621 510 l 385 657 l 393 399 l 301 399 l 310 657 l 74 510 l 22 590 l 288 714 l 22 839 l 74 920 l 310 772 l 301 1031 l 393 1031 l 385 772 l 621 920 l 672 839 z "},"+":{"ha":1164,"x_min":147,"x_max":1017,"o":"m 636 871 l 636 490 l 1017 490 l 1017 380 l 636 380 l 636 0 l 528 0 l 528 380 l 147 380 l 147 490 l 528 490 l 528 871 l 636 871 z "},",":{"ha":441,"x_min":50,"x_max":307,"o":"m 50 -135 q 144 -25 114 -88 q 174 129 174 39 l 174 154 l 307 154 q 253 -45 302 38 q 104 -189 203 -128 l 50 -135 z "},"-":{"ha":469,"x_min":61,"x_max":408,"o":"m 61 425 l 408 425 l 408 319 l 61 319 l 61 425 z "},".":{"ha":441,"x_min":131,"x_max":311,"o":"m 131 71 q 157 135 131 109 q 221 161 182 161 q 285 135 258 161 q 311 71 311 109 q 285 7 311 33 q 221 -20 258 -20 q 157 6 182 -20 q 131 71 131 33 z "},"/":{"ha":468,"x_min":0,"x_max":468,"o":"m 359 1013 l 468 1013 l 109 -129 l 0 -129 l 359 1013 z "},":":{"ha":468,"x_min":144,"x_max":325,"o":"m 144 71 q 171 135 144 109 q 235 161 197 161 q 299 135 273 161 q 325 71 325 109 q 299 6 325 33 q 235 -20 273 -20 q 170 6 196 -20 q 144 71 144 33 m 144 513 q 171 577 144 551 q 235 603 197 603 q 299 577 273 603 q 325 513 325 551 q 299 448 325 474 q 235 422 273 422 q 171 449 197 422 q 144 513 144 475 z "},";":{"ha":468,"x_min":50,"x_max":328,"o":"m 50 -135 q 144 -25 114 -88 q 174 129 174 39 l 174 154 l 307 154 q 253 -45 302 38 q 104 -189 203 -128 l 50 -135 m 147 513 q 173 577 147 551 q 237 603 199 603 q 301 576 275 603 q 328 513 328 550 q 301 449 328 475 q 237 422 275 422 q 173 449 199 422 q 147 513 147 475 z "},"<":{"ha":1164,"x_min":147,"x_max":1017,"o":"m 1017 692 l 313 435 l 1017 179 l 1017 64 l 147 379 l 147 492 l 1017 807 l 1017 692 z "},"=":{"ha":1164,"x_min":147,"x_max":1017,"o":"m 147 628 l 1017 628 l 1017 519 l 147 519 l 147 628 m 147 351 l 1017 351 l 1017 243 l 147 243 l 147 351 z "},">":{"ha":1164,"x_min":147,"x_max":1017,"o":"m 147 692 l 147 807 l 1017 492 l 1017 379 l 147 64 l 147 179 l 851 435 l 147 692 z "},"?":{"ha":745,"x_min":94,"x_max":677,"o":"m 244 71 q 270 135 244 109 q 335 161 296 161 q 399 135 372 161 q 425 71 425 109 q 399 7 425 33 q 335 -20 372 -20 q 270 6 296 -20 q 244 71 244 33 m 94 968 q 231 1015 166 1000 q 353 1031 296 1031 q 590 958 503 1031 q 677 762 677 886 q 603 556 677 636 q 376 441 528 476 l 376 269 l 293 269 l 293 492 q 474 589 413 521 q 534 764 534 658 q 485 910 534 857 q 350 964 435 964 q 223 919 273 964 q 160 791 174 875 l 94 791 l 94 968 z "},"@":{"ha":1389,"x_min":92,"x_max":1291,"o":"m 878 168 q 788 85 838 113 q 675 58 738 58 q 482 143 556 58 q 408 364 408 228 q 482 585 408 500 q 675 669 556 669 q 788 642 738 669 q 878 559 838 615 l 878 656 l 983 656 l 983 132 q 1162 242 1099 157 q 1226 454 1226 327 q 1203 597 1226 530 q 1135 721 1180 664 q 959 859 1063 811 q 734 907 856 907 q 614 894 673 907 q 496 854 554 881 q 283 664 359 791 q 207 368 207 536 q 241 160 207 255 q 339 -5 275 64 q 514 -129 413 -86 q 733 -171 616 -171 q 897 -145 821 -171 q 1038 -68 972 -119 l 1074 -115 q 907 -210 1000 -178 q 704 -241 814 -241 q 467 -196 580 -241 q 269 -68 354 -151 q 137 129 182 18 q 92 368 92 240 q 137 604 92 493 q 269 800 182 714 q 472 932 355 886 q 721 978 589 978 q 986 922 866 978 q 1186 760 1105 865 q 1264 615 1238 693 q 1291 453 1291 537 q 1180 166 1291 271 q 878 58 1069 60 l 878 168 m 878 329 l 878 400 q 829 537 878 485 q 703 590 781 590 q 575 531 621 590 q 529 364 529 471 q 575 197 529 256 q 704 138 621 138 q 829 191 781 138 q 878 329 878 244 z "},"A":{"ha":1003,"x_min":-8,"x_max":1017,"o":"m 278 367 l 650 367 l 464 848 l 278 367 m -8 0 l -8 72 l 81 72 l 441 1013 l 555 1013 l 917 72 l 1017 72 l 1017 0 l 648 0 l 648 72 l 761 72 l 676 294 l 250 294 l 165 72 l 277 72 l 277 0 l -8 0 z "},"B":{"ha":1021,"x_min":77,"x_max":936,"o":"m 343 72 l 546 72 q 724 125 668 72 q 781 293 781 178 q 725 460 781 408 q 546 513 669 513 l 343 513 l 343 72 m 343 585 l 515 585 q 678 627 627 585 q 729 762 729 670 q 678 898 729 855 q 515 940 627 940 l 343 940 l 343 585 m 77 0 l 77 72 l 205 72 l 205 940 l 77 940 l 77 1013 l 576 1013 q 807 950 730 1013 q 885 762 885 887 q 831 618 885 672 q 673 553 777 565 q 869 470 802 536 q 936 293 936 404 q 841 71 936 142 q 545 0 746 0 l 77 0 z "},"C":{"ha":1063,"x_min":78,"x_max":979,"o":"m 979 268 q 829 53 935 126 q 562 -20 724 -20 q 378 14 463 -20 q 228 114 294 48 q 115 287 152 190 q 78 505 78 383 q 214 886 78 741 q 574 1031 351 1031 q 750 1009 656 1031 q 951 943 844 987 l 951 710 l 875 710 q 774 898 850 838 q 562 958 699 958 q 317 843 400 958 q 233 505 233 728 q 317 168 233 283 q 562 53 400 53 q 749 107 675 53 q 854 268 822 161 l 979 268 z "},"D":{"ha":1114,"x_min":77,"x_max":1034,"o":"m 343 72 l 469 72 q 772 184 667 72 q 878 507 878 297 q 772 829 878 718 q 469 940 667 940 l 343 940 l 343 72 m 77 0 l 77 72 l 205 72 l 205 940 l 77 940 l 77 1013 l 479 1013 q 887 879 741 1013 q 1034 507 1034 745 q 887 134 1034 269 q 479 0 741 0 l 77 0 z "},"E":{"ha":1014,"x_min":77,"x_max":903,"o":"m 77 0 l 77 72 l 205 72 l 205 940 l 77 940 l 77 1013 l 892 1013 l 892 787 l 808 787 l 808 929 l 343 929 l 343 590 l 675 590 l 675 717 l 758 717 l 758 380 l 675 380 l 675 507 l 343 507 l 343 83 l 819 83 l 819 225 l 903 225 l 903 0 l 77 0 z "},"F":{"ha":964,"x_min":77,"x_max":905,"o":"m 77 0 l 77 72 l 205 72 l 205 940 l 77 940 l 77 1013 l 905 1013 l 905 787 l 822 787 l 822 929 l 343 929 l 343 590 l 689 590 l 689 717 l 772 717 l 772 380 l 689 380 l 689 507 l 343 507 l 343 72 l 505 72 l 505 0 l 77 0 z "},"G":{"ha":1109,"x_min":78,"x_max":1000,"o":"m 889 710 q 790 898 865 837 q 581 958 715 958 q 319 846 406 958 q 233 505 233 733 q 322 168 233 282 q 583 53 411 53 q 730 72 660 53 q 863 129 800 91 l 863 390 l 672 390 l 672 463 l 1000 463 l 1000 85 q 806 6 910 33 q 583 -20 702 -20 q 216 124 354 -20 q 78 505 78 267 q 216 888 78 745 q 589 1031 355 1031 q 768 1011 675 1031 q 965 950 861 991 l 965 710 l 889 710 z "},"H":{"ha":1211,"x_min":77,"x_max":1135,"o":"m 77 0 l 77 72 l 205 72 l 205 940 l 77 940 l 77 1013 l 472 1013 l 472 940 l 343 940 l 343 590 l 868 590 l 868 940 l 739 940 l 739 1013 l 1135 1013 l 1135 940 l 1006 940 l 1006 72 l 1135 72 l 1135 0 l 739 0 l 739 72 l 868 72 l 868 507 l 343 507 l 343 72 l 472 72 l 472 0 l 77 0 z "},"I":{"ha":549,"x_min":77,"x_max":472,"o":"m 343 72 l 472 72 l 472 0 l 77 0 l 77 72 l 205 72 l 205 940 l 77 940 l 77 1013 l 472 1013 l 472 940 l 343 940 l 343 72 z "},"J":{"ha":557,"x_min":-117,"x_max":493,"o":"m -117 -243 l -117 -83 l -39 -83 q -7 -183 -37 -151 q 82 -216 22 -216 q 195 -165 163 -216 q 227 33 227 -115 l 227 940 l 69 940 l 69 1013 l 493 1013 l 493 940 l 364 940 l 364 28 q 297 -214 364 -140 q 81 -289 230 -289 q -17 -277 33 -289 q -117 -243 -67 -266 z "},"K":{"ha":1038,"x_min":77,"x_max":1059,"o":"m 77 0 l 77 72 l 205 72 l 205 940 l 77 940 l 77 1013 l 472 1013 l 472 940 l 343 940 l 343 557 l 779 940 l 669 940 l 669 1013 l 1006 1013 l 1006 940 l 892 940 l 457 558 l 943 72 l 1059 72 l 1059 0 l 823 0 l 343 481 l 343 72 l 472 72 l 472 0 l 77 0 z "},"L":{"ha":922,"x_min":77,"x_max":889,"o":"m 77 0 l 77 72 l 205 72 l 205 940 l 77 940 l 77 1013 l 472 1013 l 472 940 l 343 940 l 343 83 l 806 83 l 806 253 l 889 253 l 889 0 l 77 0 z "},"M":{"ha":1422,"x_min":69,"x_max":1352,"o":"m 77 0 l 77 72 l 205 72 l 205 940 l 69 940 l 69 1013 l 364 1013 l 720 292 l 1075 1013 l 1352 1013 l 1352 940 l 1217 940 l 1217 72 l 1346 72 l 1346 0 l 950 0 l 950 72 l 1079 72 l 1079 854 l 732 149 l 636 149 l 289 854 l 289 72 l 418 72 l 418 0 l 77 0 z "},"N":{"ha":1215,"x_min":68,"x_max":1154,"o":"m 68 0 l 68 72 l 204 72 l 204 940 l 68 940 l 68 1013 l 328 1013 l 935 214 l 935 940 l 799 940 l 799 1013 l 1154 1013 l 1154 940 l 1018 940 l 1018 -20 l 936 -20 l 288 833 l 288 72 l 424 72 l 424 0 l 68 0 z "},"O":{"ha":1139,"x_min":78,"x_max":1061,"o":"m 570 53 q 821 167 736 53 q 905 505 905 281 q 821 844 905 730 q 570 958 736 958 q 318 844 403 958 q 233 505 233 730 q 318 167 233 281 q 570 53 403 53 m 570 -20 q 380 14 467 -20 q 228 114 294 48 q 115 286 152 190 q 78 505 78 382 q 115 725 78 628 q 228 897 152 821 q 380 997 294 964 q 570 1031 465 1031 q 926 886 790 1031 q 1061 505 1061 742 q 1024 287 1061 384 q 911 114 987 189 q 759 14 844 47 q 570 -20 673 -20 z "},"P":{"ha":935,"x_min":77,"x_max":885,"o":"m 343 515 l 522 515 q 676 570 623 515 q 729 728 729 625 q 676 886 729 831 q 522 940 623 940 l 343 940 l 343 515 m 77 0 l 77 72 l 205 72 l 205 940 l 77 940 l 77 1013 l 555 1013 q 796 936 707 1013 q 885 728 885 859 q 796 520 885 597 q 555 443 707 443 l 343 443 l 343 72 l 500 72 l 500 0 l 77 0 z "},"Q":{"ha":1139,"x_min":78,"x_max":1061,"o":"m 586 -20 q 216 123 353 -20 q 78 505 78 266 q 115 725 78 628 q 228 897 152 821 q 380 997 294 964 q 570 1031 465 1031 q 926 886 790 1031 q 1061 505 1061 742 q 960 168 1061 304 q 679 -8 858 31 q 768 -75 715 -54 q 895 -97 821 -97 l 916 -97 l 916 -222 q 719 -166 801 -217 q 586 -20 637 -116 m 570 53 q 821 167 736 53 q 905 505 905 281 q 821 844 905 730 q 570 958 736 958 q 318 844 403 958 q 233 505 233 730 q 318 167 233 281 q 570 53 403 53 z "},"R":{"ha":1046,"x_min":77,"x_max":1079,"o":"m 665 503 q 747 459 713 490 q 808 372 781 428 l 956 72 l 1079 72 l 1079 0 l 840 0 l 682 322 q 599 443 637 416 q 494 471 561 471 l 343 471 l 343 72 l 486 72 l 486 0 l 77 0 l 77 72 l 205 72 l 205 940 l 77 940 l 77 1013 l 590 1013 q 818 942 738 1013 q 899 742 899 871 q 840 577 899 637 q 665 503 781 517 m 343 543 l 543 543 q 694 592 646 543 q 743 742 743 640 q 694 892 743 844 q 543 940 646 940 l 343 940 l 343 543 z "},"S":{"ha":951,"x_min":117,"x_max":850,"o":"m 129 49 l 129 279 l 207 279 q 274 108 210 163 q 467 53 337 53 q 651 101 587 53 q 714 240 714 149 q 676 353 714 313 q 514 429 637 392 l 380 469 q 176 579 235 513 q 117 760 117 645 q 208 960 117 888 q 465 1031 300 1031 q 620 1016 536 1031 q 799 971 704 1000 l 799 755 l 722 755 q 651 910 711 863 q 468 958 591 958 q 305 915 361 958 q 249 787 249 871 q 291 673 249 715 q 469 591 333 632 l 595 554 q 791 449 732 513 q 850 277 850 385 q 755 55 850 130 q 475 -20 661 -20 q 305 -3 391 -20 q 129 49 218 14 z "},"T":{"ha":926,"x_min":14,"x_max":913,"o":"m 265 0 l 265 72 l 395 72 l 395 932 l 97 932 l 97 774 l 14 774 l 14 1013 l 913 1013 l 913 774 l 829 774 l 829 932 l 532 932 l 532 72 l 661 72 l 661 0 l 265 0 z "},"U":{"ha":1171,"x_min":65,"x_max":1108,"o":"m 195 940 l 65 940 l 65 1013 l 461 1013 l 461 940 l 332 940 l 332 416 q 395 146 332 222 q 614 69 458 69 q 832 146 769 69 q 896 416 896 222 l 896 940 l 766 940 l 766 1013 l 1108 1013 l 1108 940 l 979 940 l 979 403 q 890 76 979 172 q 589 -20 802 -20 q 285 77 376 -20 q 195 403 195 173 l 195 940 z "},"V":{"ha":1003,"x_min":-14,"x_max":1023,"o":"m 243 940 l 542 163 l 840 940 l 726 940 l 726 1013 l 1023 1013 l 1023 940 l 925 940 l 564 0 l 447 0 l 87 940 l -14 940 l -14 1013 l 355 1013 l 355 940 l 243 940 z "},"W":{"ha":1428,"x_min":7,"x_max":1423,"o":"m 1059 0 l 947 0 l 715 823 l 484 0 l 372 0 l 107 940 l 7 940 l 7 1013 l 376 1013 l 376 940 l 250 940 l 461 192 l 692 1013 l 802 1013 l 1036 183 l 1249 940 l 1132 940 l 1132 1013 l 1423 1013 l 1423 940 l 1324 940 l 1059 0 z "},"X":{"ha":989,"x_min":8,"x_max":982,"o":"m 460 433 l 212 72 l 343 72 l 343 0 l 8 0 l 8 72 l 125 72 l 416 497 l 121 940 l 12 940 l 12 1013 l 414 1013 l 414 940 l 294 940 l 511 614 l 734 940 l 604 940 l 604 1013 l 936 1013 l 936 940 l 822 940 l 554 550 l 873 72 l 982 72 l 982 0 l 581 0 l 581 72 l 701 72 l 460 433 z "},"Y":{"ha":917,"x_min":-16,"x_max":929,"o":"m 262 0 l 262 72 l 392 72 l 392 436 l 79 940 l -16 940 l -16 1013 l 361 1013 l 361 940 l 243 940 l 496 530 l 749 940 l 635 940 l 635 1013 l 929 1013 l 929 940 l 833 940 l 529 449 l 529 72 l 659 72 l 659 0 l 262 0 z "},"Z":{"ha":965,"x_min":62,"x_max":911,"o":"m 62 0 l 62 49 l 693 929 l 170 929 l 170 778 l 86 778 l 86 1013 l 886 1013 l 886 964 l 256 83 l 828 83 l 828 225 l 911 225 l 911 0 l 62 0 z "},"[":{"ha":542,"x_min":119,"x_max":435,"o":"m 119 1055 l 435 1055 l 435 983 l 249 983 l 249 -111 l 435 -111 l 435 -183 l 119 -183 l 119 1055 z "},"\\":{"ha":468,"x_min":0,"x_max":468,"o":"m 109 1013 l 468 -129 l 359 -129 l 0 1013 l 109 1013 z "},"]":{"ha":542,"x_min":107,"x_max":422,"o":"m 422 1055 l 422 -183 l 107 -183 l 107 -111 l 293 -111 l 293 983 l 107 983 l 107 1055 l 422 1055 z "},"^":{"ha":1164,"x_min":147,"x_max":1017,"o":"m 648 1013 l 1017 635 l 913 635 l 582 893 l 252 635 l 147 635 l 515 1013 l 648 1013 z "},"_":{"ha":694,"x_min":0,"x_max":694,"o":"m 694 -273 l 694 -328 l 0 -328 l 0 -273 l 694 -273 z "},"`":{"ha":694,"x_min":115,"x_max":425,"o":"m 249 1109 l 425 854 l 346 854 l 115 1109 l 249 1109 z "},"a":{"ha":828,"x_min":69,"x_max":789,"o":"m 553 227 l 553 379 l 392 379 q 254 339 299 379 q 208 216 208 299 q 254 97 208 141 q 379 53 300 53 q 505 101 457 53 q 553 227 553 149 m 677 450 l 677 72 l 789 72 l 789 0 l 553 0 l 553 78 q 457 4 511 28 q 330 -20 403 -20 q 140 44 210 -20 q 69 216 69 108 q 150 390 69 328 q 378 452 231 452 l 553 452 l 553 501 q 503 628 553 583 q 363 673 453 673 q 244 640 288 673 q 189 539 200 606 l 125 539 l 125 685 q 251 727 190 713 q 371 741 313 741 q 599 666 521 741 q 677 450 677 592 z "},"b":{"ha":889,"x_min":40,"x_max":819,"o":"m 160 72 l 160 983 l 40 983 l 40 1055 l 285 1055 l 285 608 q 378 708 321 676 q 518 741 435 741 q 735 635 651 741 q 819 361 819 530 q 735 86 819 191 q 518 -20 651 -20 q 378 13 435 -20 q 285 113 321 45 l 285 0 l 40 0 l 40 72 l 160 72 m 285 325 q 335 126 285 195 q 479 58 385 58 q 624 135 575 58 q 673 361 673 212 q 624 587 673 511 q 479 663 575 663 q 335 594 385 663 q 285 396 285 526 l 285 325 z "},"c":{"ha":778,"x_min":69,"x_max":714,"o":"m 714 216 q 612 41 688 101 q 418 -20 537 -20 q 165 84 260 -20 q 69 361 69 189 q 165 637 69 534 q 418 741 260 741 q 554 725 486 741 q 690 676 622 709 l 690 492 l 618 492 q 556 630 604 587 q 419 673 508 673 q 267 595 318 673 q 215 361 215 517 q 266 126 215 205 q 419 47 317 47 q 548 90 500 47 q 614 216 596 132 l 714 216 z "},"d":{"ha":889,"x_min":69,"x_max":848,"o":"m 729 72 l 848 72 l 848 0 l 604 0 l 604 113 q 511 13 568 45 q 371 -20 454 -20 q 154 86 238 -20 q 69 361 69 191 q 153 635 69 530 q 371 741 237 741 q 511 708 454 741 q 604 608 568 676 l 604 983 l 486 983 l 486 1055 l 729 1055 l 729 72 m 604 325 l 604 396 q 554 594 604 526 q 410 663 505 663 q 264 587 313 663 q 215 361 215 511 q 264 135 215 212 q 410 58 313 58 q 554 126 505 58 q 604 325 604 195 z "},"e":{"ha":822,"x_min":69,"x_max":753,"o":"m 753 347 l 215 347 l 215 342 q 270 122 215 196 q 432 47 325 47 q 567 91 514 47 q 640 218 619 134 l 741 218 q 630 40 711 100 q 419 -20 550 -20 q 165 84 261 -20 q 69 361 69 189 q 163 636 69 532 q 411 741 258 741 q 662 640 574 741 q 753 347 749 539 m 606 419 q 552 609 602 545 q 411 673 503 673 q 275 609 325 673 q 215 419 226 545 l 606 419 z "},"f":{"ha":514,"x_min":50,"x_max":597,"o":"m 597 885 l 532 885 q 503 962 531 936 q 421 989 475 989 q 323 950 351 989 q 294 814 294 912 l 294 721 l 496 721 l 496 648 l 294 648 l 294 72 l 454 72 l 454 0 l 50 0 l 50 72 l 170 72 l 170 648 l 50 648 l 50 721 l 170 721 l 170 811 q 232 994 170 932 q 416 1055 295 1055 q 507 1047 462 1055 q 597 1022 553 1039 l 597 885 z "},"g":{"ha":889,"x_min":69,"x_max":848,"o":"m 729 648 l 729 16 q 644 -224 729 -140 q 400 -309 558 -309 q 264 -296 329 -309 q 139 -257 199 -283 l 139 -106 l 204 -106 q 262 -209 216 -176 q 392 -241 307 -241 q 553 -179 502 -241 q 604 16 604 -117 l 604 113 q 511 13 568 45 q 371 -20 454 -20 q 154 86 238 -20 q 69 361 69 191 q 153 635 69 530 q 371 741 237 741 q 511 708 454 741 q 604 608 568 676 l 604 721 l 848 721 l 848 648 l 729 648 m 604 396 q 554 594 604 526 q 410 663 505 663 q 264 587 313 663 q 215 361 215 511 q 264 135 215 212 q 410 58 313 58 q 554 126 505 58 q 604 325 604 195 l 604 396 z "},"h":{"ha":895,"x_min":50,"x_max":856,"o":"m 57 0 l 57 72 l 170 72 l 170 983 l 50 983 l 50 1055 l 294 1055 l 294 593 q 384 703 329 666 q 513 741 439 741 q 688 672 632 741 q 745 458 745 604 l 745 72 l 856 72 l 856 0 l 511 0 l 511 72 l 619 72 l 619 419 q 587 600 619 551 q 472 648 555 648 q 340 585 385 648 q 294 401 294 522 l 294 72 l 403 72 l 403 0 l 57 0 z "},"i":{"ha":444,"x_min":50,"x_max":412,"o":"m 135 945 q 158 999 135 976 q 212 1022 180 1022 q 266 999 243 1022 q 289 945 289 976 q 267 890 289 913 q 212 868 244 868 q 158 890 180 868 q 135 945 135 913 m 294 72 l 412 72 l 412 0 l 50 0 l 50 72 l 170 72 l 170 648 l 50 648 l 50 721 l 294 721 l 294 72 z "},"j":{"ha":431,"x_min":-134,"x_max":294,"o":"m 139 945 q 162 999 139 976 q 216 1022 184 1022 q 270 999 248 1022 q 293 945 293 976 q 271 890 293 913 q 216 868 249 868 q 162 890 184 868 q 139 945 139 913 m 170 648 l 52 648 l 52 721 l 294 721 l 294 -71 q 228 -245 294 -182 q 46 -309 162 -309 q -47 -297 -3 -309 q -134 -264 -92 -286 l -134 -115 l -69 -115 q -36 -211 -64 -180 q 49 -241 -7 -241 q 140 -200 111 -241 q 170 -71 170 -158 l 170 648 z "},"k":{"ha":842,"x_min":40,"x_max":851,"o":"m 397 0 l 47 0 l 47 72 l 160 72 l 160 983 l 40 983 l 40 1055 l 285 1055 l 285 368 l 589 648 l 485 648 l 485 721 l 811 721 l 811 648 l 688 648 l 473 450 l 747 72 l 851 72 l 851 0 l 496 0 l 496 72 l 599 72 l 383 368 l 285 277 l 285 72 l 397 72 l 397 0 z "},"l":{"ha":444,"x_min":40,"x_max":403,"o":"m 285 72 l 403 72 l 403 0 l 40 0 l 40 72 l 160 72 l 160 983 l 40 983 l 40 1055 l 285 1055 l 285 72 z "},"m":{"ha":1317,"x_min":50,"x_max":1279,"o":"m 720 581 q 811 700 755 660 q 942 741 867 741 q 1111 670 1055 741 q 1166 458 1166 600 l 1166 72 l 1279 72 l 1279 0 l 933 0 l 933 72 l 1042 72 l 1042 444 q 1009 602 1042 555 q 901 648 977 648 q 774 585 818 648 q 730 401 730 522 l 730 72 l 839 72 l 839 0 l 497 0 l 497 72 l 606 72 l 606 449 q 573 603 606 557 q 465 648 541 648 q 338 585 382 648 q 294 401 294 522 l 294 72 l 403 72 l 403 0 l 57 0 l 57 72 l 170 72 l 170 650 l 50 650 l 50 721 l 294 721 l 294 593 q 382 703 329 665 q 504 741 436 741 q 644 699 588 741 q 720 581 701 657 z "},"n":{"ha":895,"x_min":50,"x_max":856,"o":"m 57 0 l 57 72 l 170 72 l 170 648 l 50 648 l 50 721 l 294 721 l 294 593 q 384 703 329 666 q 513 741 439 741 q 688 672 632 741 q 745 458 745 604 l 745 72 l 856 72 l 856 0 l 511 0 l 511 72 l 619 72 l 619 419 q 587 601 619 551 q 472 650 554 650 q 340 586 385 650 q 294 401 294 523 l 294 72 l 403 72 l 403 0 l 57 0 z "},"o":{"ha":836,"x_min":69,"x_max":766,"o":"m 418 47 q 569 127 518 47 q 621 361 621 206 q 569 594 621 515 q 418 673 518 673 q 266 594 317 673 q 215 361 215 515 q 267 127 215 206 q 418 47 318 47 m 418 -20 q 165 84 260 -20 q 69 361 69 189 q 164 637 69 533 q 418 741 260 741 q 671 637 576 741 q 766 361 766 533 q 671 84 766 189 q 418 -20 576 -20 z "},"p":{"ha":889,"x_min":40,"x_max":819,"o":"m 285 396 l 285 325 q 335 126 285 195 q 479 58 385 58 q 624 135 575 58 q 673 361 673 212 q 624 587 673 511 q 479 663 575 663 q 335 594 385 663 q 285 396 285 526 m 160 648 l 40 648 l 40 721 l 285 721 l 285 608 q 378 708 321 676 q 518 741 435 741 q 735 635 651 741 q 819 361 819 530 q 735 86 819 191 q 518 -20 651 -20 q 378 13 435 -20 q 285 113 321 45 l 285 -216 l 403 -216 l 403 -289 l 40 -289 l 40 -216 l 160 -216 l 160 648 z "},"q":{"ha":889,"x_min":69,"x_max":848,"o":"m 729 648 l 729 -216 l 848 -216 l 848 -289 l 486 -289 l 486 -216 l 604 -216 l 604 113 q 511 13 568 45 q 371 -20 454 -20 q 154 86 238 -20 q 69 361 69 191 q 153 635 69 530 q 371 741 237 741 q 511 708 454 741 q 604 608 568 676 l 604 721 l 848 721 l 848 648 l 729 648 m 604 396 q 554 594 604 526 q 410 663 505 663 q 264 587 313 663 q 215 361 215 511 q 264 135 215 212 q 410 58 313 58 q 554 126 505 58 q 604 325 604 195 l 604 396 z "},"r":{"ha":664,"x_min":50,"x_max":664,"o":"m 664 722 l 664 542 l 592 542 q 562 622 589 595 q 485 648 536 648 q 343 585 393 648 q 294 401 294 521 l 294 72 l 439 72 l 439 0 l 57 0 l 57 72 l 170 72 l 170 650 l 50 650 l 50 721 l 294 721 l 294 593 q 389 704 331 668 q 529 741 446 741 q 593 736 559 741 q 664 722 627 731 z "},"s":{"ha":713,"x_min":78,"x_max":642,"o":"m 78 40 l 78 208 l 150 208 q 200 87 153 127 q 342 47 248 47 q 470 79 426 47 q 514 171 514 111 q 482 248 514 218 q 346 310 450 277 l 256 340 q 121 415 163 370 q 79 529 79 460 q 152 684 79 628 q 353 741 224 741 q 473 726 410 741 q 603 682 536 711 l 603 525 l 531 525 q 482 634 528 595 q 357 673 436 673 q 238 646 278 673 q 197 562 197 618 q 228 489 197 517 q 350 433 258 462 l 449 403 q 596 323 551 371 q 642 200 642 275 q 563 39 642 98 q 347 -20 485 -20 q 211 -5 277 -20 q 78 40 144 10 z "},"t":{"ha":558,"x_min":40,"x_max":547,"o":"m 150 648 l 40 648 l 40 721 l 150 721 l 150 945 l 275 945 l 275 721 l 510 721 l 510 648 l 275 648 l 275 191 q 293 73 275 99 q 358 47 311 47 q 429 76 407 47 q 453 170 452 105 l 547 170 q 494 26 542 71 q 347 -20 446 -20 q 195 28 239 -20 q 150 191 150 76 l 150 648 z "},"u":{"ha":895,"x_min":37,"x_max":843,"o":"m 492 721 l 725 721 l 725 72 l 843 72 l 843 0 l 600 0 l 600 127 q 511 18 566 56 q 383 -20 456 -20 q 207 48 263 -20 q 150 262 150 117 l 150 648 l 37 648 l 37 721 l 275 721 l 275 301 q 308 121 275 170 q 422 72 340 72 q 555 136 509 72 q 600 321 600 199 l 600 648 l 492 648 l 492 721 z "},"v":{"ha":785,"x_min":-4,"x_max":781,"o":"m 343 0 l 78 648 l -4 648 l -4 721 l 328 721 l 328 648 l 212 648 l 415 153 l 618 648 l 510 648 l 510 721 l 781 721 l 781 648 l 700 648 l 435 0 l 343 0 z "},"w":{"ha":1189,"x_min":22,"x_max":1171,"o":"m 667 721 l 851 158 l 1014 648 l 909 648 l 909 721 l 1171 721 l 1171 648 l 1090 648 l 876 0 l 772 0 l 595 539 l 416 0 l 317 0 l 103 648 l 22 648 l 22 721 l 349 721 l 349 648 l 232 648 l 393 158 l 579 721 l 667 721 z "},"x":{"ha":783,"x_min":17,"x_max":766,"o":"m 404 440 l 555 648 l 458 648 l 458 721 l 736 721 l 736 648 l 640 648 l 447 382 l 672 72 l 766 72 l 766 0 l 433 0 l 433 72 l 525 72 l 368 288 l 211 72 l 304 72 l 304 0 l 31 0 l 31 72 l 126 72 l 325 346 l 106 648 l 17 648 l 17 721 l 339 721 l 339 648 l 253 648 l 404 440 z "},"y":{"ha":785,"x_min":-4,"x_max":781,"o":"m 300 -132 l 347 -12 l 78 648 l -4 648 l -4 721 l 328 721 l 328 648 l 212 648 l 415 153 l 618 648 l 510 648 l 510 721 l 781 721 l 781 648 l 700 648 l 370 -163 q 294 -278 336 -247 q 178 -309 253 -309 q 112 -303 146 -309 q 45 -288 79 -298 l 45 -150 l 109 -150 q 132 -216 113 -196 q 192 -236 151 -236 q 252 -215 229 -236 q 300 -132 275 -195 z "},"z":{"ha":732,"x_min":56,"x_max":681,"o":"m 56 0 l 56 58 l 507 648 l 150 648 l 150 524 l 78 524 l 78 721 l 668 721 l 668 663 l 216 72 l 608 72 l 608 203 l 681 203 l 681 0 l 56 0 z "},"{":{"ha":884,"x_min":174,"x_max":710,"o":"m 710 -155 l 710 -227 l 668 -227 q 442 -176 499 -227 q 385 24 385 -126 l 385 199 q 348 340 385 300 q 215 379 311 379 l 174 379 l 174 450 l 215 450 q 348 490 311 450 q 385 631 385 529 l 385 806 q 442 1005 385 956 q 668 1055 499 1055 l 710 1055 l 710 985 l 664 985 q 539 955 568 985 q 510 829 510 925 l 510 635 q 476 481 510 528 q 354 415 442 435 q 477 347 444 392 q 510 195 510 301 l 510 0 q 539 -125 510 -96 q 664 -155 568 -155 l 710 -155 z "},"|":{"ha":468,"x_min":179,"x_max":289,"o":"m 289 1061 l 289 -328 l 179 -328 l 179 1061 l 289 1061 z "},"}":{"ha":884,"x_min":174,"x_max":710,"o":"m 174 -155 l 221 -155 q 345 -126 316 -155 q 374 0 374 -96 l 374 195 q 407 347 374 301 q 529 415 440 392 q 407 481 441 435 q 374 635 374 528 l 374 829 q 345 955 374 926 q 221 985 316 985 l 174 985 l 174 1055 l 216 1055 q 442 1005 385 1055 q 498 806 498 956 l 498 631 q 535 490 498 529 q 668 450 572 450 l 710 450 l 710 379 l 668 379 q 535 340 572 379 q 498 199 498 300 l 498 24 q 442 -176 498 -126 q 216 -227 385 -227 l 174 -227 l 174 -155 z "},"~":{"ha":1164,"x_min":147,"x_max":1017,"o":"m 1017 547 l 1017 447 q 888 359 949 387 q 764 330 827 330 q 581 375 699 330 l 574 378 q 551 387 566 380 q 387 425 452 425 q 266 400 325 425 q 147 323 208 376 l 147 427 q 276 513 215 486 q 400 541 336 541 q 583 496 465 541 l 590 493 q 611 485 597 490 q 775 446 709 446 q 897 471 838 446 q 1017 547 957 496 z "}," ":{"ha":441,"x_min":0,"x_max":0,"o":""},"¡":{"ha":558,"x_min":189,"x_max":370,"o":"m 189 689 q 215 753 189 727 q 279 779 241 779 q 343 753 317 779 q 370 689 370 726 q 343 625 370 651 q 279 598 317 598 q 215 625 241 598 q 189 689 189 651 m 192 -253 l 237 304 l 237 475 l 321 475 l 321 304 l 367 -253 l 192 -253 z "},"¢":{"ha":884,"x_min":104,"x_max":749,"o":"m 427 672 q 295 584 339 662 q 252 361 252 506 q 295 137 252 215 q 427 49 339 59 l 427 672 m 749 216 q 661 53 725 112 q 494 -18 597 -5 l 494 -201 l 427 -201 l 427 -18 q 191 96 277 -5 q 104 361 104 198 q 191 626 104 525 q 427 739 277 728 l 427 920 l 494 920 l 494 739 q 614 718 557 734 q 725 676 671 703 l 725 492 l 653 492 q 601 620 640 575 q 494 672 562 664 l 494 49 q 595 100 555 57 q 648 216 634 143 l 749 216 z "},"£":{"ha":884,"x_min":93,"x_max":762,"o":"m 747 831 l 676 831 q 631 929 669 895 q 528 964 593 964 q 400 911 441 964 q 359 747 359 859 l 359 547 l 639 547 l 639 475 l 359 475 l 359 82 l 684 82 l 684 236 l 762 236 l 762 0 l 93 0 l 93 72 l 224 72 l 224 475 l 93 475 l 93 547 l 224 547 l 224 747 q 301 959 224 886 q 529 1031 379 1031 q 642 1022 587 1031 q 747 997 696 1014 l 747 831 z "},"¤":{"ha":884,"x_min":71,"x_max":817,"o":"m 611 668 l 753 808 l 817 745 l 675 603 q 718 521 704 562 q 732 435 732 479 q 718 348 732 388 q 673 269 704 308 l 814 129 l 749 65 l 608 204 q 530 160 570 174 q 443 146 490 146 q 357 160 399 146 q 273 201 315 174 l 135 62 l 71 126 l 210 267 q 168 350 182 309 q 154 435 154 391 q 168 523 154 482 q 212 602 182 563 l 72 742 l 136 806 l 277 665 q 355 709 315 695 q 443 724 396 724 q 529 710 488 724 q 611 668 570 696 m 625 436 q 573 564 625 512 q 443 616 520 616 q 314 564 367 616 q 261 436 261 512 q 314 306 261 359 q 443 253 366 253 q 572 306 519 253 q 625 436 625 359 z "},"¥":{"ha":884,"x_min":-11,"x_max":888,"o":"m 244 0 l 244 72 l 374 72 l 374 321 l 100 321 l 100 392 l 374 392 l 374 436 l 318 532 l 100 532 l 100 603 l 278 603 l 83 940 l -11 940 l -11 1013 l 364 1013 l 364 940 l 245 940 l 478 530 l 708 940 l 595 940 l 595 1013 l 888 1013 l 888 940 l 791 940 l 599 603 l 783 603 l 783 532 l 558 532 l 510 449 l 510 392 l 783 392 l 783 321 l 510 321 l 510 72 l 639 72 l 639 0 l 244 0 z "},"¦":{"ha":468,"x_min":179,"x_max":289,"o":"m 289 277 l 289 -237 l 179 -237 l 179 277 l 289 277 m 289 971 l 289 457 l 179 457 l 179 971 l 289 971 z "},"§":{"ha":694,"x_min":62,"x_max":632,"o":"m 257 635 q 192 575 211 604 q 174 511 174 547 q 420 284 174 422 l 441 272 q 501 330 481 298 q 521 401 521 363 q 474 498 521 452 q 257 635 427 543 m 562 993 l 562 856 l 500 856 q 463 933 498 905 q 368 961 428 961 q 261 928 300 961 q 222 839 222 895 q 389 680 222 773 q 415 665 407 670 q 590 541 547 591 q 632 422 632 490 q 596 315 632 358 q 484 243 561 273 q 561 168 536 211 q 586 64 586 125 q 517 -79 586 -25 q 330 -132 448 -132 q 215 -123 269 -132 q 109 -94 161 -114 l 109 47 l 171 47 q 209 -35 172 -7 q 318 -62 245 -62 q 430 -29 389 -62 q 471 61 471 4 q 316 224 471 138 q 294 236 302 232 q 105 370 148 319 q 62 488 62 420 q 102 596 62 551 q 216 663 142 642 q 134 739 161 696 q 107 835 107 781 q 175 977 107 923 q 355 1031 243 1031 q 460 1021 408 1031 q 562 993 511 1012 z "},"¨":{"ha":694,"x_min":136,"x_max":558,"o":"m 215 1064 q 271 1041 248 1064 q 294 985 294 1017 q 272 928 294 950 q 215 905 250 905 q 159 928 181 905 q 136 985 136 950 q 160 1041 136 1017 q 215 1064 183 1064 m 479 1064 q 535 1041 511 1064 q 558 985 558 1017 q 536 928 558 950 q 479 905 513 905 q 422 928 445 905 q 400 985 400 950 q 424 1041 400 1017 q 479 1064 447 1064 z "},"©":{"ha":1389,"x_min":192,"x_max":1197,"o":"m 933 389 q 853 252 915 300 q 696 204 792 204 q 493 286 569 204 q 418 503 418 367 q 494 721 418 639 q 696 803 570 803 q 803 790 750 803 q 914 751 855 778 l 914 607 l 857 607 q 807 715 846 681 q 697 750 768 750 q 575 688 616 750 q 534 503 534 626 q 575 318 534 380 q 696 257 616 257 q 800 289 762 257 q 852 389 838 321 l 933 389 m 694 1007 q 887 970 798 1007 q 1050 859 976 932 q 1160 696 1124 785 q 1197 503 1197 607 q 1160 311 1197 399 q 1050 149 1124 222 q 887 37 976 75 q 694 0 798 0 q 502 37 591 0 q 339 149 413 75 q 229 311 265 222 q 192 503 192 399 q 229 696 192 607 q 339 859 265 785 q 502 970 413 932 q 694 1007 591 1007 m 694 937 q 529 905 606 937 q 389 810 452 873 q 293 669 326 747 q 261 503 261 591 q 293 338 261 414 q 389 197 326 261 q 529 101 452 134 q 694 69 606 69 q 861 101 784 69 q 1002 197 938 134 q 1096 337 1065 260 q 1128 503 1128 414 q 1096 670 1128 593 q 1002 810 1064 747 q 861 905 938 873 q 694 937 784 937 z "},"ª":{"ha":660,"x_min":85,"x_max":623,"o":"m 568 827 l 568 570 l 623 570 l 623 513 l 468 513 l 468 567 q 393 516 435 532 q 292 500 351 500 q 140 544 196 500 q 85 664 85 588 q 149 785 85 741 q 329 828 214 828 l 468 828 l 468 859 q 429 947 468 916 q 318 979 389 979 q 224 956 259 979 q 180 885 190 932 l 129 885 l 129 991 q 230 1021 181 1011 q 323 1031 279 1031 q 506 979 444 1031 q 568 827 568 926 m 468 676 l 468 777 l 340 777 q 233 749 269 777 q 196 669 196 722 q 230 586 196 614 q 330 557 264 557 q 430 590 393 557 q 468 676 468 623 m 113 433 l 586 433 l 586 363 l 113 363 l 113 433 z "},"«":{"ha":850,"x_min":107,"x_max":720,"o":"m 720 718 l 720 640 l 518 407 l 720 174 l 720 96 l 401 379 l 401 435 l 720 718 m 425 718 l 425 640 l 224 407 l 425 174 l 425 96 l 107 379 l 107 435 l 425 718 z "},"¬":{"ha":1164,"x_min":147,"x_max":1017,"o":"m 147 585 l 1017 585 l 1017 195 l 908 195 l 908 475 l 147 475 l 147 585 z "},"­":{"ha":469,"x_min":61,"x_max":408,"o":"m 61 425 l 408 425 l 408 319 l 61 319 l 61 425 z "},"®":{"ha":1389,"x_min":192,"x_max":1197,"o":"m 607 536 l 692 536 q 776 562 748 536 q 804 639 804 588 q 776 715 804 689 q 692 741 747 741 l 607 741 l 607 536 m 774 511 q 822 485 802 502 q 856 440 842 467 l 935 285 l 986 285 l 986 239 l 857 239 l 768 411 q 724 474 745 458 q 669 490 703 490 l 607 490 l 607 285 l 664 285 l 664 239 l 449 239 l 449 285 l 505 285 l 505 741 l 449 741 l 449 786 l 730 786 q 861 748 817 786 q 905 636 905 710 q 873 549 905 580 q 774 511 840 518 m 694 937 q 529 905 606 937 q 389 810 452 873 q 293 669 326 747 q 261 503 261 591 q 293 338 261 414 q 389 197 326 261 q 529 101 452 134 q 694 69 606 69 q 861 101 784 69 q 1002 197 938 134 q 1096 337 1065 260 q 1128 503 1128 414 q 1096 670 1128 593 q 1002 810 1064 747 q 861 905 938 873 q 694 937 784 937 m 694 1007 q 887 970 798 1007 q 1050 859 976 932 q 1160 696 1124 785 q 1197 503 1197 607 q 1160 311 1197 399 q 1050 149 1124 222 q 887 37 976 75 q 694 0 798 0 q 502 37 591 0 q 339 149 413 75 q 229 311 265 222 q 192 503 192 399 q 229 696 192 607 q 339 859 265 785 q 502 970 413 932 q 694 1007 591 1007 z "},"¯":{"ha":694,"x_min":144,"x_max":550,"o":"m 144 1035 l 550 1035 l 550 935 l 144 935 l 144 1035 z "},"°":{"ha":694,"x_min":132,"x_max":562,"o":"m 347 937 q 260 902 296 937 q 225 814 225 866 q 260 728 225 762 q 347 693 295 693 q 434 728 399 693 q 469 814 469 763 q 433 901 469 865 q 347 937 397 937 m 347 1031 q 431 1014 391 1031 q 500 966 471 998 q 547 897 531 936 q 562 814 562 859 q 499 662 562 724 q 346 600 437 600 q 193 661 254 600 q 132 814 132 722 q 195 968 132 905 q 347 1031 257 1031 z "},"±":{"ha":1164,"x_min":147,"x_max":1017,"o":"m 636 871 l 636 606 l 1017 606 l 1017 496 l 636 496 l 636 231 l 528 231 l 528 496 l 147 496 l 147 606 l 528 606 l 528 871 l 636 871 m 147 109 l 1017 109 l 1017 0 l 147 0 l 147 109 z "},"²":{"ha":557,"x_min":61,"x_max":469,"o":"m 115 879 l 68 879 l 68 986 q 160 1019 113 1008 q 254 1031 208 1031 q 406 986 348 1031 q 464 871 464 941 q 332 670 464 788 l 319 659 l 158 513 l 419 513 l 419 586 l 469 586 l 469 453 l 61 453 l 61 504 l 254 676 q 338 770 313 728 q 363 856 363 811 q 330 947 363 913 q 240 981 297 981 q 155 955 187 981 q 115 879 123 929 z "},"³":{"ha":557,"x_min":68,"x_max":486,"o":"m 85 996 q 180 1022 134 1013 q 265 1031 225 1031 q 409 994 359 1031 q 460 890 460 958 q 424 808 460 842 q 323 762 388 774 q 445 711 404 751 q 486 603 486 671 q 427 484 486 526 q 257 443 368 443 q 161 452 208 443 q 68 481 114 462 l 68 596 l 115 595 q 152 519 119 545 q 248 493 185 493 q 346 523 311 493 q 380 608 380 553 q 346 704 380 671 q 243 736 311 736 l 207 736 l 207 786 l 225 786 q 325 811 291 786 q 358 886 358 836 q 331 956 358 932 q 252 981 303 981 q 166 959 196 981 q 132 893 137 937 l 85 893 l 85 996 z "},"´":{"ha":694,"x_min":267,"x_max":576,"o":"m 441 1111 l 576 1111 l 346 856 l 267 856 l 441 1111 z "},"µ":{"ha":903,"x_min":40,"x_max":852,"o":"m 501 721 l 734 721 l 734 71 l 852 71 l 852 0 l 610 0 l 610 127 q 525 18 574 56 q 414 -20 475 -20 q 343 -7 375 -20 q 285 29 311 5 l 285 -216 l 403 -216 l 403 -289 l 40 -289 l 40 -216 l 160 -216 l 160 648 l 47 648 l 47 721 l 285 721 l 285 301 q 317 121 285 170 q 432 72 350 72 q 564 136 519 72 q 610 321 610 199 l 610 648 l 501 648 l 501 721 z "},"¶":{"ha":884,"x_min":107,"x_max":794,"o":"m 429 1013 l 794 1013 l 794 940 l 714 940 l 714 -134 l 642 -134 l 642 940 l 485 940 l 485 -134 l 412 -134 l 412 440 q 187 527 267 452 q 107 726 107 602 q 195 934 107 855 q 429 1013 283 1013 z "},"·":{"ha":441,"x_min":129,"x_max":310,"o":"m 129 482 q 155 546 129 520 q 220 572 181 572 q 283 546 257 572 q 310 482 310 519 q 283 418 310 444 q 220 392 257 392 q 155 418 181 392 q 129 482 129 444 z "},"¸":{"ha":694,"x_min":197,"x_max":478,"o":"m 392 0 q 457 -81 435 -43 q 478 -153 478 -119 q 435 -238 478 -208 q 317 -268 393 -268 q 258 -264 288 -268 q 197 -252 229 -260 l 197 -163 q 252 -180 225 -174 q 302 -186 279 -186 q 363 -168 341 -186 q 386 -119 386 -150 q 371 -71 386 -100 q 326 0 356 -41 l 392 0 z "},"¹":{"ha":557,"x_min":100,"x_max":449,"o":"m 119 453 l 119 510 l 236 510 l 236 940 l 100 868 l 100 932 l 262 1019 l 332 1019 l 332 510 l 449 510 l 449 453 l 119 453 z "},"º":{"ha":653,"x_min":64,"x_max":589,"o":"m 326 551 q 434 605 398 551 q 471 765 471 659 q 434 925 471 871 q 326 979 397 979 q 219 924 256 979 q 182 765 182 869 q 218 606 182 660 q 326 551 255 551 m 326 500 q 136 573 208 500 q 64 765 64 646 q 136 958 64 885 q 326 1031 208 1031 q 517 958 445 1031 q 589 765 589 885 q 517 572 589 645 q 326 500 446 500 m 93 433 l 559 433 l 559 363 l 93 363 l 93 433 z "},"»":{"ha":850,"x_min":131,"x_max":743,"o":"m 425 718 l 743 435 l 743 379 l 425 96 l 425 174 l 627 407 l 425 640 l 425 718 m 131 718 l 449 435 l 449 379 l 131 96 l 131 174 l 332 407 l 131 640 l 131 718 z "},"¼":{"ha":1346,"x_min":100,"x_max":1303,"o":"m 1095 205 l 1095 481 l 886 205 l 1095 205 m 1290 0 l 996 0 l 996 57 l 1095 57 l 1095 150 l 825 150 l 825 207 l 1096 566 l 1192 566 l 1192 205 l 1303 205 l 1303 150 l 1192 150 l 1192 57 l 1290 57 l 1290 0 m 119 453 l 119 510 l 236 510 l 236 940 l 100 868 l 100 932 l 262 1019 l 332 1019 l 332 510 l 449 510 l 449 453 l 119 453 m 941 1031 l 1043 1031 l 404 -20 l 302 -20 l 941 1031 z "},"½":{"ha":1346,"x_min":100,"x_max":1258,"o":"m 119 453 l 119 510 l 236 510 l 236 940 l 100 868 l 100 932 l 262 1019 l 332 1019 l 332 510 l 449 510 l 449 453 l 119 453 m 941 1031 l 1043 1031 l 404 -20 l 302 -20 l 941 1031 m 904 426 l 857 426 l 857 533 q 949 566 901 555 q 1043 578 996 578 q 1195 533 1137 578 q 1253 418 1253 488 q 1121 217 1253 335 l 1108 205 l 947 60 l 1208 60 l 1208 133 l 1258 133 l 1258 0 l 850 0 l 850 51 l 1043 223 q 1126 317 1101 275 q 1152 403 1152 358 q 1119 494 1152 460 q 1029 528 1086 528 q 944 502 976 528 q 904 426 912 476 z "},"¾":{"ha":1346,"x_min":68,"x_max":1303,"o":"m 1095 205 l 1095 481 l 886 205 l 1095 205 m 1290 0 l 996 0 l 996 57 l 1095 57 l 1095 150 l 825 150 l 825 207 l 1096 566 l 1192 566 l 1192 205 l 1303 205 l 1303 150 l 1192 150 l 1192 57 l 1290 57 l 1290 0 m 85 996 q 180 1022 134 1013 q 265 1031 225 1031 q 409 994 359 1031 q 460 890 460 958 q 424 808 460 842 q 323 762 388 774 q 445 711 404 751 q 486 603 486 671 q 427 484 486 526 q 257 443 368 443 q 161 452 208 443 q 68 481 114 462 l 68 596 l 115 595 q 152 519 119 545 q 248 493 185 493 q 346 523 311 493 q 380 608 380 553 q 346 704 380 671 q 243 736 311 736 l 207 736 l 207 786 l 225 786 q 325 811 291 786 q 358 886 358 836 q 331 956 358 932 q 252 981 303 981 q 166 959 196 981 q 132 893 137 937 l 85 893 l 85 996 m 941 1031 l 1043 1031 l 404 -20 l 302 -20 l 941 1031 z "},"¿":{"ha":745,"x_min":94,"x_max":677,"o":"m 528 689 q 502 625 528 651 q 437 598 475 598 q 374 625 400 598 q 347 689 347 651 q 374 753 347 726 q 437 779 400 779 q 502 753 476 779 q 528 689 528 727 m 677 -208 q 541 -256 606 -240 q 419 -271 477 -271 q 182 -199 269 -271 q 94 -3 94 -126 q 170 203 94 123 q 396 318 245 283 l 396 490 l 479 490 l 479 268 q 298 170 359 239 q 237 -4 237 102 q 287 -151 237 -97 q 422 -204 337 -204 q 549 -160 499 -204 q 612 -32 598 -115 l 677 -32 l 677 -208 z "},"À":{"ha":1003,"x_min":-8,"x_max":1017,"o":"m 278 367 l 650 367 l 464 848 l 278 367 m -8 0 l -8 72 l 81 72 l 441 1013 l 555 1013 l 917 72 l 1017 72 l 1017 0 l 648 0 l 648 72 l 761 72 l 676 294 l 250 294 l 165 72 l 277 72 l 277 0 l -8 0 m 454 1288 l 578 1109 l 498 1109 l 321 1288 l 454 1288 z "},"Á":{"ha":1003,"x_min":-8,"x_max":1017,"o":"m 278 367 l 650 367 l 464 848 l 278 367 m -8 0 l -8 72 l 81 72 l 441 1013 l 555 1013 l 917 72 l 1017 72 l 1017 0 l 648 0 l 648 72 l 761 72 l 676 294 l 250 294 l 165 72 l 277 72 l 277 0 l -8 0 m 544 1288 l 677 1288 l 500 1109 l 420 1109 l 544 1288 z "},"Â":{"ha":1003,"x_min":-8,"x_max":1017,"o":"m 278 367 l 650 367 l 464 848 l 278 367 m -8 0 l -8 72 l 81 72 l 441 1013 l 555 1013 l 917 72 l 1017 72 l 1017 0 l 648 0 l 648 72 l 761 72 l 676 294 l 250 294 l 165 72 l 277 72 l 277 0 l -8 0 m 441 1288 l 561 1288 l 718 1109 l 639 1109 l 501 1218 l 363 1109 l 285 1109 l 441 1288 z "},"Ã":{"ha":1003,"x_min":-8,"x_max":1017,"o":"m 278 367 l 650 367 l 464 848 l 278 367 m -8 0 l -8 72 l 81 72 l 441 1013 l 555 1013 l 917 72 l 1017 72 l 1017 0 l 648 0 l 648 72 l 761 72 l 676 294 l 250 294 l 165 72 l 277 72 l 277 0 l -8 0 m 492 1163 l 460 1182 q 432 1196 446 1191 q 407 1200 418 1200 q 363 1181 380 1200 q 342 1131 345 1162 l 277 1131 q 313 1239 279 1199 q 406 1279 348 1279 q 451 1273 430 1279 q 509 1246 472 1267 l 543 1228 q 573 1215 558 1219 q 600 1210 588 1210 q 643 1229 627 1210 q 659 1279 659 1247 l 725 1279 q 689 1169 724 1208 q 590 1131 654 1131 q 496 1161 545 1131 l 492 1163 z "},"Ä":{"ha":1003,"x_min":-8,"x_max":1017,"o":"m 278 367 l 650 367 l 464 848 l 278 367 m -8 0 l -8 72 l 81 72 l 441 1013 l 555 1013 l 917 72 l 1017 72 l 1017 0 l 648 0 l 648 72 l 761 72 l 676 294 l 250 294 l 165 72 l 277 72 l 277 0 l -8 0 m 369 1278 q 425 1254 401 1278 q 448 1199 448 1230 q 426 1142 448 1165 q 369 1120 403 1120 q 313 1142 336 1120 q 290 1199 290 1165 q 314 1254 290 1230 q 369 1278 337 1278 m 633 1278 q 689 1254 665 1278 q 712 1199 712 1230 q 689 1142 712 1165 q 633 1120 667 1120 q 577 1142 600 1120 q 554 1199 554 1165 q 577 1254 554 1230 q 633 1278 601 1278 z "},"Å":{"ha":1003,"x_min":-8,"x_max":1017,"o":"m 602 1103 q 571 1176 602 1145 q 498 1206 541 1206 q 426 1176 455 1206 q 396 1103 396 1147 q 426 1030 396 1060 q 498 1000 455 1000 q 571 1030 541 1000 q 602 1103 602 1060 m 278 367 l 648 367 l 464 848 l 278 367 m -8 0 l -8 72 l 81 72 l 412 939 q 338 1005 363 964 q 313 1103 313 1046 q 367 1235 313 1180 q 498 1289 421 1289 q 630 1235 576 1289 q 685 1103 685 1180 q 659 1005 685 1048 q 583 939 632 962 l 917 72 l 1017 72 l 1017 0 l 648 0 l 648 72 l 761 72 l 676 294 l 250 294 l 165 72 l 277 72 l 277 0 l -8 0 z "},"Æ":{"ha":1390,"x_min":-24,"x_max":1318,"o":"m 289 367 l 621 367 l 621 940 l 553 940 l 289 367 m 492 0 l 492 72 l 621 72 l 621 294 l 256 294 l 153 72 l 264 72 l 264 0 l -24 0 l -24 72 l 65 72 l 465 940 l 319 940 l 319 1013 l 1307 1013 l 1307 787 l 1223 787 l 1223 929 l 757 929 l 757 590 l 1090 590 l 1090 717 l 1174 717 l 1174 380 l 1090 380 l 1090 507 l 757 507 l 757 83 l 1235 83 l 1235 225 l 1318 225 l 1318 0 l 492 0 z "},"Ç":{"ha":1063,"x_min":78,"x_max":979,"o":"m 979 268 q 829 53 935 126 q 562 -20 724 -20 q 378 14 463 -20 q 228 114 294 48 q 115 287 152 190 q 78 505 78 383 q 214 886 78 741 q 574 1031 351 1031 q 750 1009 656 1031 q 951 943 844 987 l 951 710 l 875 710 q 774 898 850 838 q 562 958 699 958 q 317 843 400 958 q 233 505 233 728 q 317 168 233 283 q 562 53 400 53 q 749 107 675 53 q 854 268 822 161 l 979 268 m 617 0 q 682 -81 661 -43 q 703 -153 703 -119 q 661 -238 703 -208 q 542 -268 618 -268 q 484 -264 513 -268 q 422 -252 454 -260 l 422 -163 q 477 -180 450 -174 q 528 -186 504 -186 q 589 -168 566 -186 q 611 -119 611 -150 q 596 -71 611 -100 q 551 0 581 -41 l 617 0 z "},"È":{"ha":1014,"x_min":77,"x_max":903,"o":"m 77 0 l 77 72 l 205 72 l 205 940 l 77 940 l 77 1013 l 892 1013 l 892 787 l 808 787 l 808 929 l 343 929 l 343 590 l 675 590 l 675 717 l 758 717 l 758 380 l 675 380 l 675 507 l 343 507 l 343 83 l 819 83 l 819 225 l 903 225 l 903 0 l 77 0 m 460 1288 l 584 1109 l 505 1109 l 327 1288 l 460 1288 z "},"É":{"ha":1014,"x_min":77,"x_max":903,"o":"m 77 0 l 77 72 l 205 72 l 205 940 l 77 940 l 77 1013 l 892 1013 l 892 787 l 808 787 l 808 929 l 343 929 l 343 590 l 675 590 l 675 717 l 758 717 l 758 380 l 675 380 l 675 507 l 343 507 l 343 83 l 819 83 l 819 225 l 903 225 l 903 0 l 77 0 m 550 1288 l 684 1288 l 506 1109 l 427 1109 l 550 1288 z "},"Ê":{"ha":1014,"x_min":77,"x_max":903,"o":"m 77 0 l 77 72 l 205 72 l 205 940 l 77 940 l 77 1013 l 892 1013 l 892 787 l 808 787 l 808 929 l 343 929 l 343 590 l 675 590 l 675 717 l 758 717 l 758 380 l 675 380 l 675 507 l 343 507 l 343 83 l 819 83 l 819 225 l 903 225 l 903 0 l 77 0 m 448 1288 l 567 1288 l 724 1109 l 645 1109 l 507 1218 l 370 1109 l 291 1109 l 448 1288 z "},"Ë":{"ha":1014,"x_min":77,"x_max":903,"o":"m 77 0 l 77 72 l 205 72 l 205 940 l 77 940 l 77 1013 l 892 1013 l 892 787 l 808 787 l 808 929 l 343 929 l 343 590 l 675 590 l 675 717 l 758 717 l 758 380 l 675 380 l 675 507 l 343 507 l 343 83 l 819 83 l 819 225 l 903 225 l 903 0 l 77 0 m 375 1278 q 431 1254 408 1278 q 454 1199 454 1230 q 432 1142 454 1165 q 375 1120 409 1120 q 319 1142 342 1120 q 296 1199 296 1165 q 320 1254 296 1230 q 375 1278 343 1278 m 640 1278 q 695 1254 671 1278 q 718 1199 718 1230 q 695 1142 718 1165 q 640 1120 673 1120 q 583 1142 606 1120 q 560 1199 560 1165 q 584 1254 560 1230 q 640 1278 607 1278 z "},"Ì":{"ha":549,"x_min":77,"x_max":472,"o":"m 343 72 l 472 72 l 472 0 l 77 0 l 77 72 l 205 72 l 205 940 l 77 940 l 77 1013 l 472 1013 l 472 940 l 343 940 l 343 72 m 228 1288 l 352 1109 l 273 1109 l 95 1288 l 228 1288 z "},"Í":{"ha":549,"x_min":77,"x_max":472,"o":"m 343 72 l 472 72 l 472 0 l 77 0 l 77 72 l 205 72 l 205 940 l 77 940 l 77 1013 l 472 1013 l 472 940 l 343 940 l 343 72 m 318 1288 l 452 1288 l 274 1109 l 195 1109 l 318 1288 z "},"Î":{"ha":549,"x_min":59,"x_max":492,"o":"m 343 72 l 472 72 l 472 0 l 77 0 l 77 72 l 205 72 l 205 940 l 77 940 l 77 1013 l 472 1013 l 472 940 l 343 940 l 343 72 m 216 1288 l 335 1288 l 492 1109 l 413 1109 l 275 1218 l 138 1109 l 59 1109 l 216 1288 z "},"Ï":{"ha":549,"x_min":64,"x_max":486,"o":"m 343 72 l 472 72 l 472 0 l 77 0 l 77 72 l 205 72 l 205 940 l 77 940 l 77 1013 l 472 1013 l 472 940 l 343 940 l 343 72 m 143 1278 q 199 1254 176 1278 q 222 1199 222 1230 q 200 1142 222 1165 q 143 1120 177 1120 q 87 1142 110 1120 q 64 1199 64 1165 q 88 1254 64 1230 q 143 1278 111 1278 m 408 1278 q 463 1254 439 1278 q 486 1199 486 1230 q 464 1142 486 1165 q 408 1120 441 1120 q 351 1142 374 1120 q 328 1199 328 1165 q 352 1254 328 1230 q 408 1278 375 1278 z "},"Ð":{"ha":1121,"x_min":77,"x_max":1040,"o":"m 349 72 l 476 72 q 779 184 673 72 q 885 507 885 297 q 780 829 885 718 q 476 940 674 940 l 349 940 l 349 572 l 576 572 l 576 488 l 349 488 l 349 72 m 83 0 l 83 72 l 212 72 l 212 488 l 77 488 l 77 572 l 212 572 l 212 940 l 83 940 l 83 1013 l 486 1013 q 894 879 748 1013 q 1040 507 1040 745 q 894 134 1040 269 q 486 0 747 0 l 83 0 z "},"Ñ":{"ha":1215,"x_min":68,"x_max":1154,"o":"m 68 0 l 68 72 l 204 72 l 204 940 l 68 940 l 68 1013 l 328 1013 l 935 214 l 935 940 l 799 940 l 799 1013 l 1154 1013 l 1154 940 l 1018 940 l 1018 -20 l 936 -20 l 288 833 l 288 72 l 424 72 l 424 0 l 68 0 m 600 1163 l 567 1182 q 539 1196 553 1191 q 514 1200 526 1200 q 470 1181 488 1200 q 450 1131 452 1162 l 385 1131 q 420 1239 386 1199 q 513 1279 455 1279 q 558 1273 537 1279 q 616 1246 579 1267 l 650 1228 q 680 1215 665 1219 q 707 1210 695 1210 q 750 1229 734 1210 q 766 1279 766 1247 l 832 1279 q 796 1169 831 1208 q 697 1131 761 1131 q 603 1161 652 1131 l 600 1163 z "},"Ò":{"ha":1139,"x_min":78,"x_max":1061,"o":"m 570 53 q 821 167 736 53 q 905 505 905 281 q 821 844 905 730 q 570 958 736 958 q 318 844 403 958 q 233 505 233 730 q 318 167 233 281 q 570 53 403 53 m 570 -20 q 380 14 467 -20 q 228 114 294 48 q 115 286 152 190 q 78 505 78 382 q 115 725 78 628 q 228 897 152 821 q 380 997 294 964 q 570 1031 465 1031 q 926 886 790 1031 q 1061 505 1061 742 q 1024 287 1061 384 q 911 114 987 189 q 759 14 844 47 q 570 -20 673 -20 m 522 1288 l 646 1109 l 567 1109 l 389 1288 l 522 1288 z "},"Ó":{"ha":1139,"x_min":78,"x_max":1061,"o":"m 570 53 q 821 167 736 53 q 905 505 905 281 q 821 844 905 730 q 570 958 736 958 q 318 844 403 958 q 233 505 233 730 q 318 167 233 281 q 570 53 403 53 m 570 -20 q 380 14 467 -20 q 228 114 294 48 q 115 286 152 190 q 78 505 78 382 q 115 725 78 628 q 228 897 152 821 q 380 997 294 964 q 570 1031 465 1031 q 926 886 790 1031 q 1061 505 1061 742 q 1024 287 1061 384 q 911 114 987 189 q 759 14 844 47 q 570 -20 673 -20 m 612 1288 l 746 1288 l 568 1109 l 489 1109 l 612 1288 z "},"Ô":{"ha":1139,"x_min":78,"x_max":1061,"o":"m 570 53 q 821 167 736 53 q 905 505 905 281 q 821 844 905 730 q 570 958 736 958 q 318 844 403 958 q 233 505 233 730 q 318 167 233 281 q 570 53 403 53 m 570 -20 q 380 14 467 -20 q 228 114 294 48 q 115 286 152 190 q 78 505 78 382 q 115 725 78 628 q 228 897 152 821 q 380 997 294 964 q 570 1031 465 1031 q 926 886 790 1031 q 1061 505 1061 742 q 1024 287 1061 384 q 911 114 987 189 q 759 14 844 47 q 570 -20 673 -20 m 510 1288 l 629 1288 l 786 1109 l 707 1109 l 570 1218 l 432 1109 l 353 1109 l 510 1288 z "},"Õ":{"ha":1139,"x_min":78,"x_max":1061,"o":"m 570 53 q 821 167 736 53 q 905 505 905 281 q 821 844 905 730 q 570 958 736 958 q 318 844 403 958 q 233 505 233 730 q 318 167 233 281 q 570 53 403 53 m 570 -20 q 380 14 467 -20 q 228 114 294 48 q 115 286 152 190 q 78 505 78 382 q 115 725 78 628 q 228 897 152 821 q 380 997 294 964 q 570 1031 465 1031 q 926 886 790 1031 q 1061 505 1061 742 q 1024 287 1061 384 q 911 114 987 189 q 759 14 844 47 q 570 -20 673 -20 m 561 1163 l 528 1182 q 501 1196 515 1191 q 475 1200 487 1200 q 431 1181 449 1200 q 411 1131 414 1162 l 346 1131 q 382 1239 347 1199 q 474 1279 416 1279 q 519 1273 498 1279 q 578 1246 541 1267 l 611 1228 q 642 1215 627 1219 q 668 1210 656 1210 q 712 1229 696 1210 q 728 1279 728 1247 l 793 1279 q 757 1169 792 1208 q 659 1131 722 1131 q 564 1161 613 1131 l 561 1163 z "},"Ö":{"ha":1139,"x_min":78,"x_max":1061,"o":"m 570 53 q 821 167 736 53 q 905 505 905 281 q 821 844 905 730 q 570 958 736 958 q 318 844 403 958 q 233 505 233 730 q 318 167 233 281 q 570 53 403 53 m 570 -20 q 380 14 467 -20 q 228 114 294 48 q 115 286 152 190 q 78 505 78 382 q 115 725 78 628 q 228 897 152 821 q 380 997 294 964 q 570 1031 465 1031 q 926 886 790 1031 q 1061 505 1061 742 q 1024 287 1061 384 q 911 114 987 189 q 759 14 844 47 q 570 -20 673 -20 m 437 1278 q 493 1254 470 1278 q 517 1199 517 1230 q 494 1142 517 1165 q 437 1120 471 1120 q 381 1142 404 1120 q 359 1199 359 1165 q 382 1254 359 1230 q 437 1278 406 1278 m 702 1278 q 757 1254 734 1278 q 781 1199 781 1230 q 758 1142 781 1165 q 702 1120 735 1120 q 645 1142 668 1120 q 623 1199 623 1165 q 646 1254 623 1230 q 702 1278 669 1278 z "},"×":{"ha":1164,"x_min":192,"x_max":972,"o":"m 972 749 l 659 435 l 972 122 l 895 46 l 582 358 l 269 46 l 192 122 l 504 435 l 192 749 l 269 825 l 582 513 l 895 825 l 972 749 z "},"Ø":{"ha":1139,"x_min":68,"x_max":1068,"o":"m 823 840 q 716 929 779 900 q 570 958 654 958 q 318 844 403 958 q 233 505 233 730 q 244 359 233 425 q 278 239 255 294 l 823 840 m 314 174 q 421 83 357 113 q 570 53 485 53 q 821 167 736 53 q 905 505 905 281 q 894 651 905 585 q 860 774 883 718 l 314 174 m 943 865 q 1032 703 1002 792 q 1061 505 1061 614 q 925 126 1061 271 q 570 -20 789 -20 q 393 9 474 -20 q 244 97 313 39 l 121 -39 l 68 8 l 195 149 q 107 308 136 220 q 78 505 78 397 q 214 885 78 740 q 570 1031 351 1031 q 747 1002 665 1031 q 893 917 828 973 l 1014 1051 l 1068 1003 l 943 865 z "},"Ù":{"ha":1171,"x_min":65,"x_max":1108,"o":"m 195 940 l 65 940 l 65 1013 l 461 1013 l 461 940 l 332 940 l 332 416 q 395 146 332 222 q 614 69 458 69 q 832 146 769 69 q 896 416 896 222 l 896 940 l 766 940 l 766 1013 l 1108 1013 l 1108 940 l 979 940 l 979 403 q 890 76 979 172 q 589 -20 802 -20 q 285 77 376 -20 q 195 403 195 173 l 195 940 m 565 1288 l 689 1109 l 610 1109 l 432 1288 l 565 1288 z "},"Ú":{"ha":1171,"x_min":65,"x_max":1108,"o":"m 195 940 l 65 940 l 65 1013 l 461 1013 l 461 940 l 332 940 l 332 416 q 395 146 332 222 q 614 69 458 69 q 832 146 769 69 q 896 416 896 222 l 896 940 l 766 940 l 766 1013 l 1108 1013 l 1108 940 l 979 940 l 979 403 q 890 76 979 172 q 589 -20 802 -20 q 285 77 376 -20 q 195 403 195 173 l 195 940 m 655 1288 l 789 1288 l 611 1109 l 532 1109 l 655 1288 z "},"Û":{"ha":1171,"x_min":65,"x_max":1108,"o":"m 195 940 l 65 940 l 65 1013 l 461 1013 l 461 940 l 332 940 l 332 416 q 395 146 332 222 q 614 69 458 69 q 832 146 769 69 q 896 416 896 222 l 896 940 l 766 940 l 766 1013 l 1108 1013 l 1108 940 l 979 940 l 979 403 q 890 76 979 172 q 589 -20 802 -20 q 285 77 376 -20 q 195 403 195 173 l 195 940 m 553 1288 l 672 1288 l 829 1109 l 750 1109 l 612 1218 l 475 1109 l 396 1109 l 553 1288 z "},"Ü":{"ha":1171,"x_min":65,"x_max":1108,"o":"m 195 940 l 65 940 l 65 1013 l 461 1013 l 461 940 l 332 940 l 332 416 q 395 146 332 222 q 614 69 458 69 q 832 146 769 69 q 896 416 896 222 l 896 940 l 766 940 l 766 1013 l 1108 1013 l 1108 940 l 979 940 l 979 403 q 890 76 979 172 q 589 -20 802 -20 q 285 77 376 -20 q 195 403 195 173 l 195 940 m 480 1278 q 536 1254 513 1278 q 559 1199 559 1230 q 537 1142 559 1165 q 480 1120 514 1120 q 424 1142 447 1120 q 401 1199 401 1165 q 425 1254 401 1230 q 480 1278 448 1278 m 745 1278 q 800 1254 777 1278 q 823 1199 823 1230 q 801 1142 823 1165 q 745 1120 778 1120 q 688 1142 711 1120 q 665 1199 665 1165 q 689 1254 665 1230 q 745 1278 712 1278 z "},"Ý":{"ha":917,"x_min":-16,"x_max":929,"o":"m 262 0 l 262 72 l 392 72 l 392 436 l 79 940 l -16 940 l -16 1013 l 361 1013 l 361 940 l 243 940 l 496 530 l 749 940 l 635 940 l 635 1013 l 929 1013 l 929 940 l 833 940 l 529 449 l 529 72 l 659 72 l 659 0 l 262 0 m 501 1288 l 635 1288 l 457 1109 l 378 1109 l 501 1288 z "},"Þ":{"ha":939,"x_min":77,"x_max":885,"o":"m 343 294 l 522 294 q 676 349 623 294 q 729 507 729 404 q 676 665 729 610 q 522 720 623 720 l 343 720 l 343 294 m 77 0 l 77 72 l 205 72 l 205 940 l 77 940 l 77 1013 l 500 1013 l 500 940 l 343 940 l 343 791 l 555 791 q 796 714 707 791 q 885 507 885 637 q 796 298 885 376 q 555 221 707 221 l 343 221 l 343 72 l 500 72 l 500 0 l 77 0 z "},"ß":{"ha":928,"x_min":40,"x_max":867,"o":"m 637 821 q 585 945 632 901 q 457 989 538 989 q 326 945 368 989 q 285 807 285 901 l 285 0 l 40 0 l 40 72 l 160 72 l 160 804 q 238 989 160 924 q 457 1055 315 1055 q 677 985 602 1055 q 761 771 753 914 l 746 771 q 591 734 648 771 q 534 635 534 698 q 553 573 534 600 q 621 515 571 547 l 681 478 q 826 353 786 411 q 867 218 867 296 q 788 47 867 113 q 585 -20 710 -20 q 470 -7 527 -20 q 359 29 413 5 l 359 187 l 433 187 q 474 83 436 119 q 581 47 511 47 q 699 89 656 47 q 742 200 742 130 q 715 297 742 257 q 608 386 688 336 l 550 422 q 449 510 479 467 q 419 610 419 554 q 476 748 419 692 q 637 821 534 804 z "},"à":{"ha":828,"x_min":69,"x_max":789,"o":"m 553 227 l 553 379 l 392 379 q 254 339 299 379 q 208 216 208 299 q 254 97 208 141 q 379 53 300 53 q 505 101 457 53 q 553 227 553 149 m 677 450 l 677 72 l 789 72 l 789 0 l 553 0 l 553 78 q 457 4 511 28 q 330 -20 403 -20 q 140 44 210 -20 q 69 216 69 108 q 150 390 69 328 q 378 452 231 452 l 553 452 l 553 501 q 503 628 553 583 q 363 673 453 673 q 244 640 288 673 q 189 539 200 606 l 125 539 l 125 685 q 251 727 190 713 q 371 741 313 741 q 599 666 521 741 q 677 450 677 592 m 288 1109 l 464 854 l 385 854 l 154 1109 l 288 1109 z "},"á":{"ha":828,"x_min":69,"x_max":789,"o":"m 553 227 l 553 379 l 392 379 q 254 339 299 379 q 208 216 208 299 q 254 97 208 141 q 379 53 300 53 q 505 101 457 53 q 553 227 553 149 m 677 450 l 677 72 l 789 72 l 789 0 l 553 0 l 553 78 q 457 4 511 28 q 330 -20 403 -20 q 140 44 210 -20 q 69 216 69 108 q 150 390 69 328 q 378 452 231 452 l 553 452 l 553 501 q 503 628 553 583 q 363 673 453 673 q 244 640 288 673 q 189 539 200 606 l 125 539 l 125 685 q 251 727 190 713 q 371 741 313 741 q 599 666 521 741 q 677 450 677 592 m 480 1111 l 615 1111 l 385 856 l 305 856 l 480 1111 z "},"â":{"ha":828,"x_min":69,"x_max":789,"o":"m 553 227 l 553 379 l 392 379 q 254 339 299 379 q 208 216 208 299 q 254 97 208 141 q 379 53 300 53 q 505 101 457 53 q 553 227 553 149 m 677 450 l 677 72 l 789 72 l 789 0 l 553 0 l 553 78 q 457 4 511 28 q 330 -20 403 -20 q 140 44 210 -20 q 69 216 69 108 q 150 390 69 328 q 378 452 231 452 l 553 452 l 553 501 q 503 628 553 583 q 363 673 453 673 q 244 640 288 673 q 189 539 200 606 l 125 539 l 125 685 q 251 727 190 713 q 371 741 313 741 q 599 666 521 741 q 677 450 677 592 m 329 1111 l 443 1111 l 602 856 l 524 856 l 386 1032 l 248 856 l 170 856 l 329 1111 z "},"ã":{"ha":828,"x_min":69,"x_max":789,"o":"m 553 227 l 553 379 l 392 379 q 254 339 299 379 q 208 216 208 299 q 254 97 208 141 q 379 53 300 53 q 505 101 457 53 q 553 227 553 149 m 677 450 l 677 72 l 789 72 l 789 0 l 553 0 l 553 78 q 457 4 511 28 q 330 -20 403 -20 q 140 44 210 -20 q 69 216 69 108 q 150 390 69 328 q 378 452 231 452 l 553 452 l 553 501 q 503 628 553 583 q 363 673 453 673 q 244 640 288 673 q 189 539 200 606 l 125 539 l 125 685 q 251 727 190 713 q 371 741 313 741 q 599 666 521 741 q 677 450 677 592 m 383 929 l 345 966 q 316 988 327 983 q 292 993 304 993 q 247 966 263 993 q 227 888 231 939 l 162 888 q 198 1029 163 979 q 294 1079 233 1079 q 342 1069 320 1079 q 389 1038 363 1060 l 427 1000 q 454 979 443 985 q 480 974 466 974 q 526 1001 509 974 q 545 1079 542 1028 l 610 1079 q 574 938 608 987 q 477 888 539 888 q 430 897 452 888 q 383 929 408 907 z "},"ä":{"ha":828,"x_min":69,"x_max":789,"o":"m 553 227 l 553 379 l 392 379 q 254 339 299 379 q 208 216 208 299 q 254 97 208 141 q 379 53 300 53 q 505 101 457 53 q 553 227 553 149 m 677 450 l 677 72 l 789 72 l 789 0 l 553 0 l 553 78 q 457 4 511 28 q 330 -20 403 -20 q 140 44 210 -20 q 69 216 69 108 q 150 390 69 328 q 378 452 231 452 l 553 452 l 553 501 q 503 628 553 583 q 363 673 453 673 q 244 640 288 673 q 189 539 200 606 l 125 539 l 125 685 q 251 727 190 713 q 371 741 313 741 q 599 666 521 741 q 677 450 677 592 m 254 1064 q 310 1041 286 1064 q 333 985 333 1017 q 311 928 333 950 q 254 905 288 905 q 197 928 220 905 q 175 985 175 950 q 198 1041 175 1017 q 254 1064 222 1064 m 518 1064 q 573 1041 550 1064 q 597 985 597 1017 q 574 928 597 950 q 518 905 552 905 q 461 928 484 905 q 439 985 439 950 q 462 1041 439 1017 q 518 1064 486 1064 z "},"å":{"ha":828,"x_min":69,"x_max":789,"o":"m 553 227 l 553 379 l 392 379 q 254 339 299 379 q 208 216 208 299 q 254 97 208 141 q 379 53 300 53 q 505 101 457 53 q 553 227 553 149 m 677 450 l 677 72 l 789 72 l 789 0 l 553 0 l 553 78 q 457 4 511 28 q 330 -20 403 -20 q 140 44 210 -20 q 69 216 69 108 q 150 390 69 328 q 378 452 231 452 l 553 452 l 553 501 q 503 628 553 583 q 363 673 453 673 q 244 640 288 673 q 189 539 200 606 l 125 539 l 125 685 q 251 727 190 713 q 371 741 313 741 q 599 666 521 741 q 677 450 677 592 m 572 1034 q 518 901 572 956 q 386 847 464 847 q 254 901 308 847 q 200 1034 200 956 q 254 1165 200 1112 q 386 1219 308 1219 q 518 1165 464 1219 q 572 1034 572 1112 m 489 1034 q 459 1106 489 1076 q 386 1136 429 1136 q 312 1106 342 1136 q 283 1034 283 1077 q 312 960 283 989 q 386 930 342 930 q 459 960 429 930 q 489 1034 489 990 z "},"æ":{"ha":1305,"x_min":69,"x_max":1236,"o":"m 553 227 l 553 379 l 392 379 q 254 339 299 379 q 208 216 208 299 q 254 97 208 141 q 379 53 300 53 q 505 101 457 53 q 553 227 553 149 m 627 102 q 502 10 570 40 q 349 -20 433 -20 q 142 42 215 -20 q 69 216 69 104 q 150 390 69 328 q 378 452 231 452 l 553 452 l 553 501 q 504 628 553 583 q 368 673 455 673 q 245 640 290 673 q 189 539 200 606 l 125 539 l 125 685 q 251 727 190 713 q 371 741 313 741 q 532 711 467 741 q 635 621 597 682 q 750 710 685 680 q 895 741 815 741 q 1145 640 1058 741 q 1236 347 1233 538 l 699 347 l 699 342 q 753 122 699 196 q 916 47 808 47 q 1050 91 998 47 q 1124 218 1103 134 l 1223 218 q 1114 40 1194 100 q 903 -20 1033 -20 q 750 11 820 -20 q 627 102 680 42 m 1089 419 q 1036 609 1085 545 q 895 673 987 673 q 759 609 808 673 q 699 419 709 545 l 1089 419 z "},"ç":{"ha":778,"x_min":69,"x_max":714,"o":"m 714 216 q 612 41 688 101 q 418 -20 537 -20 q 165 84 260 -20 q 69 361 69 189 q 165 637 69 534 q 418 741 260 741 q 554 725 486 741 q 690 676 622 709 l 690 492 l 618 492 q 556 630 604 587 q 419 673 508 673 q 267 595 318 673 q 215 361 215 517 q 266 126 215 205 q 419 47 317 47 q 548 90 500 47 q 614 216 596 132 l 714 216 m 460 0 q 525 -81 503 -43 q 546 -153 546 -119 q 503 -238 546 -208 q 385 -268 460 -268 q 326 -264 356 -268 q 265 -252 296 -260 l 265 -163 q 320 -180 293 -174 q 370 -186 347 -186 q 431 -168 409 -186 q 454 -119 454 -150 q 439 -71 454 -100 q 394 0 424 -41 l 460 0 z "},"è":{"ha":822,"x_min":69,"x_max":753,"o":"m 753 347 l 215 347 l 215 342 q 270 122 215 196 q 432 47 325 47 q 567 91 514 47 q 640 218 619 134 l 741 218 q 630 40 711 100 q 419 -20 550 -20 q 165 84 261 -20 q 69 361 69 189 q 163 636 69 532 q 411 741 258 741 q 662 640 574 741 q 753 347 749 539 m 606 419 q 552 609 602 545 q 411 673 503 673 q 275 609 325 673 q 215 419 226 545 l 606 419 m 313 1109 l 489 854 l 410 854 l 179 1109 l 313 1109 z "},"é":{"ha":822,"x_min":69,"x_max":753,"o":"m 753 347 l 215 347 l 215 342 q 270 122 215 196 q 432 47 325 47 q 567 91 514 47 q 640 218 619 134 l 741 218 q 630 40 711 100 q 419 -20 550 -20 q 165 84 261 -20 q 69 361 69 189 q 163 636 69 532 q 411 741 258 741 q 662 640 574 741 q 753 347 749 539 m 606 419 q 552 609 602 545 q 411 673 503 673 q 275 609 325 673 q 215 419 226 545 l 606 419 m 505 1111 l 640 1111 l 410 856 l 330 856 l 505 1111 z "},"ê":{"ha":822,"x_min":69,"x_max":753,"o":"m 753 347 l 215 347 l 215 342 q 270 122 215 196 q 432 47 325 47 q 567 91 514 47 q 640 218 619 134 l 741 218 q 630 40 711 100 q 419 -20 550 -20 q 165 84 261 -20 q 69 361 69 189 q 163 636 69 532 q 411 741 258 741 q 662 640 574 741 q 753 347 749 539 m 606 419 q 552 609 602 545 q 411 673 503 673 q 275 609 325 673 q 215 419 226 545 l 606 419 m 354 1111 l 468 1111 l 627 856 l 549 856 l 411 1032 l 273 856 l 195 856 l 354 1111 z "},"ë":{"ha":822,"x_min":69,"x_max":753,"o":"m 753 347 l 215 347 l 215 342 q 270 122 215 196 q 432 47 325 47 q 567 91 514 47 q 640 218 619 134 l 741 218 q 630 40 711 100 q 419 -20 550 -20 q 165 84 261 -20 q 69 361 69 189 q 163 636 69 532 q 411 741 258 741 q 662 640 574 741 q 753 347 749 539 m 606 419 q 552 609 602 545 q 411 673 503 673 q 275 609 325 673 q 215 419 226 545 l 606 419 m 279 1064 q 335 1041 311 1064 q 358 985 358 1017 q 336 928 358 950 q 279 905 313 905 q 222 928 245 905 q 200 985 200 950 q 223 1041 200 1017 q 279 1064 247 1064 m 543 1064 q 598 1041 575 1064 q 622 985 622 1017 q 600 928 622 950 q 543 905 577 905 q 486 928 509 905 q 464 985 464 950 q 487 1041 464 1017 q 543 1064 511 1064 z "},"ì":{"ha":444,"x_min":-9,"x_max":412,"o":"m 294 72 l 412 72 l 412 0 l 50 0 l 50 72 l 170 72 l 170 648 l 50 648 l 50 721 l 294 721 l 294 72 m 124 1109 l 300 854 l 221 854 l -9 1109 l 124 1109 z "},"í":{"ha":444,"x_min":50,"x_max":452,"o":"m 294 72 l 412 72 l 412 0 l 50 0 l 50 72 l 170 72 l 170 648 l 50 648 l 50 721 l 294 721 l 294 72 m 317 1111 l 452 1111 l 221 856 l 142 856 l 317 1111 z "},"î":{"ha":444,"x_min":6,"x_max":439,"o":"m 294 72 l 412 72 l 412 0 l 50 0 l 50 72 l 170 72 l 170 648 l 50 648 l 50 721 l 294 721 l 294 72 m 165 1111 l 279 1111 l 439 856 l 360 856 l 222 1032 l 85 856 l 6 856 l 165 1111 z "},"ï":{"ha":444,"x_min":12,"x_max":433,"o":"m 294 72 l 412 72 l 412 0 l 50 0 l 50 72 l 170 72 l 170 648 l 50 648 l 50 721 l 294 721 l 294 72 m 90 1064 q 146 1041 123 1064 q 170 985 170 1017 q 147 928 170 950 q 90 905 125 905 q 34 928 56 905 q 12 985 12 950 q 35 1041 12 1017 q 90 1064 58 1064 m 355 1064 q 410 1041 387 1064 q 433 985 433 1017 q 411 928 433 950 q 355 905 389 905 q 298 928 320 905 q 275 985 275 950 q 299 1041 275 1017 q 355 1064 322 1064 z "},"ð":{"ha":836,"x_min":69,"x_max":766,"o":"m 557 629 q 499 638 526 635 q 444 642 471 642 q 271 569 327 642 q 215 345 215 496 q 268 125 215 202 q 418 47 321 47 q 568 125 515 47 q 621 347 621 203 q 605 495 621 423 q 557 629 589 566 m 515 886 q 703 641 640 773 q 766 361 766 508 q 671 84 766 189 q 418 -20 576 -20 q 166 83 262 -20 q 69 351 69 186 q 165 610 69 511 q 415 708 260 708 q 464 706 439 708 q 525 699 490 704 q 485 771 510 734 q 427 844 460 807 l 208 743 l 183 796 l 382 888 q 287 955 340 927 q 170 997 234 982 l 182 1055 q 333 1006 262 1038 q 467 928 404 974 l 685 1029 l 710 977 l 515 886 z "},"ñ":{"ha":895,"x_min":50,"x_max":856,"o":"m 57 0 l 57 72 l 170 72 l 170 648 l 50 648 l 50 721 l 294 721 l 294 593 q 384 703 329 666 q 513 741 439 741 q 688 672 632 741 q 745 458 745 604 l 745 72 l 856 72 l 856 0 l 511 0 l 511 72 l 619 72 l 619 419 q 587 601 619 551 q 472 650 554 650 q 340 586 385 650 q 294 401 294 523 l 294 72 l 403 72 l 403 0 l 57 0 m 444 929 l 406 966 q 377 988 388 983 q 353 993 366 993 q 308 966 324 993 q 288 888 292 939 l 223 888 q 259 1029 224 979 q 355 1079 294 1079 q 403 1069 381 1079 q 450 1038 425 1060 l 488 1000 q 515 979 504 985 q 541 974 527 974 q 587 1001 570 974 q 606 1079 603 1028 l 671 1079 q 635 938 669 987 q 538 888 600 888 q 491 897 513 888 q 444 929 469 907 z "},"ò":{"ha":836,"x_min":69,"x_max":766,"o":"m 418 47 q 569 127 518 47 q 621 361 621 206 q 569 594 621 515 q 418 673 518 673 q 266 594 317 673 q 215 361 215 515 q 267 127 215 206 q 418 47 318 47 m 418 -20 q 165 84 260 -20 q 69 361 69 189 q 164 637 69 533 q 418 741 260 741 q 671 637 576 741 q 766 361 766 533 q 671 84 766 189 q 418 -20 576 -20 m 319 1109 l 496 854 l 416 854 l 186 1109 l 319 1109 z "},"ó":{"ha":836,"x_min":69,"x_max":766,"o":"m 418 47 q 569 127 518 47 q 621 361 621 206 q 569 594 621 515 q 418 673 518 673 q 266 594 317 673 q 215 361 215 515 q 267 127 215 206 q 418 47 318 47 m 418 -20 q 165 84 260 -20 q 69 361 69 189 q 164 637 69 533 q 418 741 260 741 q 671 637 576 741 q 766 361 766 533 q 671 84 766 189 q 418 -20 576 -20 m 512 1111 l 647 1111 l 416 856 l 337 856 l 512 1111 z "},"ô":{"ha":836,"x_min":69,"x_max":766,"o":"m 418 47 q 569 127 518 47 q 621 361 621 206 q 569 594 621 515 q 418 673 518 673 q 266 594 317 673 q 215 361 215 515 q 267 127 215 206 q 418 47 318 47 m 418 -20 q 165 84 260 -20 q 69 361 69 189 q 164 637 69 533 q 418 741 260 741 q 671 637 576 741 q 766 361 766 533 q 671 84 766 189 q 418 -20 576 -20 m 361 1111 l 475 1111 l 634 856 l 555 856 l 418 1032 l 280 856 l 201 856 l 361 1111 z "},"õ":{"ha":836,"x_min":69,"x_max":766,"o":"m 418 47 q 569 127 518 47 q 621 361 621 206 q 569 594 621 515 q 418 673 518 673 q 266 594 317 673 q 215 361 215 515 q 267 127 215 206 q 418 47 318 47 m 418 -20 q 165 84 260 -20 q 69 361 69 189 q 164 637 69 533 q 418 741 260 741 q 671 637 576 741 q 766 361 766 533 q 671 84 766 189 q 418 -20 576 -20 m 415 929 l 376 966 q 348 988 359 983 q 323 993 336 993 q 279 966 295 993 q 259 888 262 939 l 194 888 q 230 1029 195 979 q 326 1079 264 1079 q 374 1069 352 1079 q 420 1038 395 1060 l 459 1000 q 486 979 475 985 q 512 974 498 974 q 557 1001 541 974 q 576 1079 574 1028 l 642 1079 q 606 938 640 987 q 509 888 571 888 q 462 897 484 888 q 415 929 440 907 z "},"ö":{"ha":836,"x_min":69,"x_max":766,"o":"m 418 47 q 569 127 518 47 q 621 361 621 206 q 569 594 621 515 q 418 673 518 673 q 266 594 317 673 q 215 361 215 515 q 267 127 215 206 q 418 47 318 47 m 418 -20 q 165 84 260 -20 q 69 361 69 189 q 164 637 69 533 q 418 741 260 741 q 671 637 576 741 q 766 361 766 533 q 671 84 766 189 q 418 -20 576 -20 m 286 1064 q 341 1041 318 1064 q 365 985 365 1017 q 342 928 365 950 q 286 905 320 905 q 229 928 252 905 q 207 985 207 950 q 230 1041 207 1017 q 286 1064 254 1064 m 550 1064 q 605 1041 582 1064 q 629 985 629 1017 q 606 928 629 950 q 550 905 584 905 q 493 928 515 905 q 471 985 471 950 q 494 1041 471 1017 q 550 1064 517 1064 z "},"÷":{"ha":1164,"x_min":147,"x_max":1017,"o":"m 492 686 q 518 750 492 724 q 582 777 544 777 q 646 750 619 777 q 672 686 672 724 q 646 622 672 648 q 582 596 619 596 q 517 622 543 596 q 492 686 492 648 m 492 184 q 518 249 492 222 q 582 275 544 275 q 646 249 619 275 q 672 184 672 222 q 646 121 672 147 q 582 94 619 94 q 517 120 543 94 q 492 184 492 146 m 147 490 l 1017 490 l 1017 380 l 147 380 l 147 490 z "},"ø":{"ha":836,"x_min":52,"x_max":779,"o":"m 570 596 q 506 654 544 635 q 418 673 468 673 q 267 594 318 673 q 215 361 215 515 q 220 272 215 312 q 235 199 225 232 l 570 596 m 265 129 q 330 67 292 87 q 418 47 368 47 q 569 127 517 47 q 621 361 621 207 q 615 453 621 412 q 600 529 610 494 l 265 129 m 681 625 q 745 508 723 575 q 766 361 766 441 q 671 84 766 189 q 418 -20 576 -20 q 300 -2 354 -20 q 200 53 245 16 l 103 -64 l 52 -21 l 153 100 q 90 217 111 152 q 69 361 69 283 q 164 637 69 533 q 418 741 260 741 q 536 723 481 741 q 633 672 590 706 l 728 785 l 779 742 l 681 625 z "},"ù":{"ha":895,"x_min":37,"x_max":843,"o":"m 492 721 l 725 721 l 725 72 l 843 72 l 843 0 l 600 0 l 600 127 q 511 18 566 56 q 383 -20 456 -20 q 207 48 263 -20 q 150 262 150 117 l 150 648 l 37 648 l 37 721 l 275 721 l 275 301 q 308 121 275 170 q 422 72 340 72 q 555 136 509 72 q 600 321 600 199 l 600 648 l 492 648 l 492 721 m 298 1109 l 474 854 l 395 854 l 164 1109 l 298 1109 z "},"ú":{"ha":895,"x_min":37,"x_max":843,"o":"m 492 721 l 725 721 l 725 72 l 843 72 l 843 0 l 600 0 l 600 127 q 511 18 566 56 q 383 -20 456 -20 q 207 48 263 -20 q 150 262 150 117 l 150 648 l 37 648 l 37 721 l 275 721 l 275 301 q 308 121 275 170 q 422 72 340 72 q 555 136 509 72 q 600 321 600 199 l 600 648 l 492 648 l 492 721 m 490 1111 l 625 1111 l 395 856 l 315 856 l 490 1111 z "},"û":{"ha":895,"x_min":37,"x_max":843,"o":"m 492 721 l 725 721 l 725 72 l 843 72 l 843 0 l 600 0 l 600 127 q 511 18 566 56 q 383 -20 456 -20 q 207 48 263 -20 q 150 262 150 117 l 150 648 l 37 648 l 37 721 l 275 721 l 275 301 q 308 121 275 170 q 422 72 340 72 q 555 136 509 72 q 600 321 600 199 l 600 648 l 492 648 l 492 721 m 339 1111 l 453 1111 l 612 856 l 534 856 l 396 1032 l 258 856 l 180 856 l 339 1111 z "},"ü":{"ha":895,"x_min":37,"x_max":843,"o":"m 492 721 l 725 721 l 725 72 l 843 72 l 843 0 l 600 0 l 600 127 q 511 18 566 56 q 383 -20 456 -20 q 207 48 263 -20 q 150 262 150 117 l 150 648 l 37 648 l 37 721 l 275 721 l 275 301 q 308 121 275 170 q 422 72 340 72 q 555 136 509 72 q 600 321 600 199 l 600 648 l 492 648 l 492 721 m 264 1064 q 320 1041 296 1064 q 343 985 343 1017 q 321 928 343 950 q 264 905 298 905 q 208 928 230 905 q 185 985 185 950 q 209 1041 185 1017 q 264 1064 232 1064 m 528 1064 q 584 1041 560 1064 q 607 985 607 1017 q 585 928 607 950 q 528 905 562 905 q 471 928 494 905 q 449 985 449 950 q 472 1041 449 1017 q 528 1064 496 1064 z "},"ý":{"ha":785,"x_min":-4,"x_max":781,"o":"m 300 -132 l 347 -12 l 78 648 l -4 648 l -4 721 l 328 721 l 328 648 l 212 648 l 415 153 l 618 648 l 510 648 l 510 721 l 781 721 l 781 648 l 700 648 l 370 -163 q 294 -278 336 -247 q 178 -309 253 -309 q 112 -303 146 -309 q 45 -288 79 -298 l 45 -150 l 109 -150 q 132 -216 113 -196 q 192 -236 151 -236 q 252 -215 229 -236 q 300 -132 275 -195 m 488 1111 l 623 1111 l 392 856 l 313 856 l 488 1111 z "},"þ":{"ha":889,"x_min":40,"x_max":819,"o":"m 285 396 l 285 325 q 335 126 285 195 q 479 58 385 58 q 624 135 575 58 q 673 361 673 212 q 624 587 673 511 q 479 663 575 663 q 335 594 385 663 q 285 396 285 526 m 160 983 l 40 983 l 40 1055 l 285 1055 l 285 608 q 378 708 321 676 q 518 741 435 741 q 735 635 651 741 q 819 361 819 530 q 735 86 819 191 q 518 -20 651 -20 q 378 13 435 -20 q 285 113 321 45 l 285 -216 l 403 -216 l 403 -289 l 40 -289 l 40 -216 l 160 -216 l 160 983 z "},"ÿ":{"ha":785,"x_min":-4,"x_max":781,"o":"m 300 -132 l 347 -12 l 78 648 l -4 648 l -4 721 l 328 721 l 328 648 l 212 648 l 415 153 l 618 648 l 510 648 l 510 721 l 781 721 l 781 648 l 700 648 l 370 -163 q 294 -278 336 -247 q 178 -309 253 -309 q 112 -303 146 -309 q 45 -288 79 -298 l 45 -150 l 109 -150 q 132 -216 113 -196 q 192 -236 151 -236 q 252 -215 229 -236 q 300 -132 275 -195 m 261 1064 q 317 1041 294 1064 q 340 985 340 1017 q 318 928 340 950 q 261 905 296 905 q 205 928 227 905 q 182 985 182 950 q 206 1041 182 1017 q 261 1064 229 1064 m 526 1064 q 581 1041 557 1064 q 604 985 604 1017 q 582 928 604 950 q 526 905 559 905 q 469 928 491 905 q 446 985 446 950 q 470 1041 446 1017 q 526 1064 493 1064 z "}}}
